<svg width="32" height="32" viewBox="0 0 32 32" fill="none" xmlns="http://www.w3.org/2000/svg">
<path fill-rule="evenodd" clip-rule="evenodd" d="M16 0C7.16344 0 0 7.16344 0 16C0 24.8366 7.16344 32 16 32C24.8366 32 32 24.8366 32 16C32 7.16344 24.8366 0 16 0ZM12.4823 7.51835C13.3925 7.47693 13.6834 7.4668 16.0009 7.4668H15.9983C18.3165 7.4668 18.6063 7.47693 19.5165 7.51835C20.425 7.55995 21.0454 7.70378 21.5894 7.9148C22.1512 8.13258 22.6259 8.42414 23.1006 8.89881C23.5752 9.37313 23.8668 9.84922 24.0855 10.4105C24.2952 10.9531 24.4392 11.5732 24.4819 12.4816C24.5228 13.3918 24.5335 13.6827 24.5335 16.0002C24.5335 18.3178 24.5228 18.6079 24.4819 19.5181C24.4392 20.4262 24.2952 21.0465 24.0855 21.5893C23.8668 22.1503 23.5752 22.6264 23.1006 23.1007C22.6264 23.5754 22.151 23.8677 21.59 24.0856C21.047 24.2967 20.4262 24.4405 19.5178 24.4821C18.6075 24.5235 18.3176 24.5336 15.9999 24.5336C13.6825 24.5336 13.3918 24.5235 12.4816 24.4821C11.5733 24.4405 10.9531 24.2967 10.4101 24.0856C9.84922 23.8677 9.37313 23.5754 8.89899 23.1007C8.4245 22.6264 8.13294 22.1503 7.9148 21.5891C7.70395 21.0465 7.56013 20.4264 7.51835 19.5179C7.47711 18.6077 7.4668 18.3178 7.4668 16.0002C7.4668 13.6827 7.47746 13.3917 7.51818 12.4814C7.55906 11.5733 7.70307 10.9531 7.91462 10.4103C8.13329 9.84922 8.42485 9.37313 8.89952 8.89881C9.37384 8.42432 9.84993 8.13276 10.4112 7.9148C10.9538 7.70378 11.5739 7.55995 12.4823 7.51835Z" fill="white"/>
<path fill-rule="evenodd" clip-rule="evenodd" d="M15.2355 9.00409C15.3841 9.00385 15.544 9.00393 15.7166 9.004L16.001 9.00409C18.2794 9.00409 18.5495 9.01226 19.4492 9.05315C20.2812 9.0912 20.7328 9.23022 21.0336 9.34702C21.4318 9.50169 21.7157 9.68658 22.0142 9.98525C22.3129 10.2839 22.4978 10.5684 22.6528 10.9666C22.7696 11.267 22.9088 11.7186 22.9467 12.5506C22.9876 13.4502 22.9964 13.7204 22.9964 15.9978C22.9964 18.2751 22.9876 18.5453 22.9467 19.4449C22.9086 20.2769 22.7696 20.7285 22.6528 21.0289C22.4981 21.4271 22.3129 21.7107 22.0142 22.0092C21.7155 22.3079 21.432 22.4928 21.0336 22.6474C20.7331 22.7648 20.2812 22.9034 19.4492 22.9415C18.5496 22.9824 18.2794 22.9913 16.001 22.9913C13.7224 22.9913 13.4524 22.9824 12.5528 22.9415C11.7208 22.9031 11.2692 22.7641 10.9682 22.6472C10.57 22.4926 10.2856 22.3077 9.98689 22.009C9.68822 21.7104 9.50333 21.4266 9.34831 21.0282C9.23151 20.7278 9.09231 20.2762 9.05444 19.4442C9.01355 18.5446 9.00537 18.2744 9.00537 15.9956C9.00537 13.7168 9.01355 13.448 9.05444 12.5485C9.09248 11.7165 9.23151 11.2649 9.34831 10.9641C9.50298 10.5659 9.68822 10.2814 9.98689 9.98276C10.2856 9.68409 10.57 9.4992 10.9682 9.34418C11.269 9.22684 11.7208 9.08818 12.5528 9.04995C13.34 9.0144 13.6451 9.00373 15.2355 9.00195V9.00409ZM20.5562 10.421C19.9908 10.421 19.5321 10.8791 19.5321 11.4447C19.5321 12.01 19.9908 12.4687 20.5562 12.4687C21.1215 12.4687 21.5802 12.01 21.5802 11.4447C21.5802 10.8793 21.1215 10.4207 20.5562 10.4207V10.421ZM11.6187 15.9999C11.6187 13.5798 13.5808 11.6177 16.0008 11.6176C18.4209 11.6176 20.3826 13.5797 20.3826 15.9999C20.3826 18.42 18.4211 20.3812 16.001 20.3812C13.5809 20.3812 11.6187 18.42 11.6187 15.9999Z" fill="white"/>
<path fill-rule="evenodd" clip-rule="evenodd" d="M16.0007 13.1553C17.5716 13.1553 18.8452 14.4287 18.8452 15.9997C18.8452 17.5706 17.5716 18.8442 16.0007 18.8442C14.4297 18.8442 13.1562 17.5706 13.1562 15.9997C13.1562 14.4287 14.4297 13.1553 16.0007 13.1553V13.1553Z" fill="white"/>
</svg>
