<svg width="1752" height="1243" viewBox="0 0 1752 1243" fill="none" xmlns="http://www.w3.org/2000/svg">
<g clip-path="url(#clip0)">
<rect width="1752" height="1243" fill="#CBDAE4"/>
<rect x="-1530" y="34.3613" width="1955.15" height="1180.3" fill="url(#paint0_linear)"/>
<g opacity="0.25">
<path opacity="0.4" d="M1823.71 965.474L1788.24 1027.78L1741.65 1004.49L1796.8 907.597L1837.21 927.788L1846.76 901.186L-162.04 181.018L-170.635 204.96L-147.204 213.486L-185.436 317.644L-208.082 309.39L-216.677 333.332L1792.13 1053.5L1823.71 965.474ZM-125.411 341.722L-171.999 318.462L-116.85 221.569L-70.2626 244.863L-125.411 341.722ZM-48.3329 366.789L-97.4104 348.918L-59.1784 244.76L-10.1008 262.632L-48.3329 366.789ZM-24.3227 377.157L1.15396 268.941L51.4593 282.686L25.9485 390.902L-24.3227 377.157ZM87.9179 415.662L38.8744 397.791L77.0724 293.633L126.15 311.505L87.9179 415.662ZM147.977 439.741L101.389 416.447L156.538 319.553L203.092 342.847L147.977 439.741ZM225.021 464.808L175.944 446.937L214.142 342.779L263.219 360.65L225.021 464.808ZM249.031 475.176L274.542 366.96L324.848 380.704L299.337 488.92L249.031 475.176ZM361.306 513.647L312.229 495.776L350.427 391.618L399.504 409.489L361.306 513.647ZM421.366 537.725L374.778 514.431L429.892 417.538L476.48 440.832L421.366 537.725ZM498.41 562.827L449.332 544.956L487.564 440.798L536.642 458.669L498.41 562.827ZM522.42 573.161L547.896 464.944L598.202 478.689L572.725 586.905L522.42 573.161ZM634.694 611.666L585.617 593.794L623.815 489.637L672.892 507.508L634.694 611.666ZM694.754 635.744L648.166 612.45L703.314 515.557L749.868 538.851L694.754 635.744ZM771.798 660.811L722.72 642.94L760.952 538.782L810.03 556.654L771.798 660.811ZM795.808 671.179L821.285 562.963L871.624 576.708L846.147 684.924L795.808 671.179ZM908.083 709.684L859.005 691.813L897.203 587.655L946.281 605.527L908.083 709.684ZM968.108 733.763L921.52 710.469L976.703 613.575L1023.26 636.869L968.108 733.763ZM1045.15 758.83L996.074 740.959L1034.27 636.801L1083.35 654.672L1045.15 758.83ZM1069.16 769.198L1094.67 660.982L1144.98 674.726L1119.5 782.943L1069.16 769.198ZM1181.47 807.703L1132.39 789.832L1170.59 685.674L1219.67 703.545L1181.47 807.703ZM1241.5 831.747L1194.94 808.487L1250.06 711.594L1296.64 734.888L1241.5 831.747ZM1318.54 856.849L1269.46 838.978L1307.69 734.82L1356.74 752.691L1318.54 856.849ZM1342.55 867.217L1368.03 759L1418.33 772.745L1392.86 880.961L1342.55 867.217ZM1454.83 905.688L1405.75 887.816L1443.98 783.659L1493.06 801.53L1454.83 905.688ZM1514.88 929.766L1468.3 906.472L1523.45 809.613L1570.03 832.907L1514.88 929.766ZM1591.93 954.867L1542.85 936.996L1581.05 832.839L1630.13 850.71L1591.93 954.867ZM1615.94 965.201L1641.42 856.985L1691.72 870.73L1666.24 978.946L1615.94 965.201ZM1728.21 1003.71L1679.14 985.835L1717.37 881.677L1766.45 899.549L1728.21 1003.71Z" fill="#E3EEF5"/>
<path opacity="0.4" d="M1866.78 845.28L1564.64 736.961L1596.53 708.176L1879.57 809.64L1894.95 766.769L1851.81 477.863L1902.66 496.109L1928.92 672.025L2040.51 360.745L1907.57 480.728L1856.72 462.516L2074.48 266.035L2089.49 224.154L1805.94 122.383L1799.59 79.8881L2102.28 188.411L2109.24 168.971L100.433 -551.197L93.4753 -531.757L406.426 -419.55L374.503 -390.765L90.474 -492.604L87.234 -514.363L72.5346 -473.334L119.259 -160.418L68.4079 -178.664L38.5657 -378.59L-87.4876 -27.0662L63.4967 -163.317L114.348 -145.071L-121.456 67.6784L-136.156 108.707L-118.899 93.121L165.131 194.959L171.474 237.455L-142.022 125.044L-148.979 144.484L1859.82 864.652L1866.78 845.28ZM1877.12 786.789L1613.96 692.454L1645.85 663.669L1870.77 744.294L1877.12 786.789ZM1867.29 721.102L1663.24 647.946L1695.16 619.161L1860.95 678.607L1867.29 721.102ZM1857.51 655.415L1712.56 603.473L1744.48 574.688L1851.16 612.92L1857.51 655.415ZM1847.68 589.729L1761.87 558.966L1793.76 530.181L1841.3 547.233L1847.68 589.729ZM1837.86 524.042L1811.16 514.458L1833.43 494.37L1837.86 524.042ZM1853.04 437.994L1848.6 408.357L1875.31 417.94L1853.04 437.994ZM1892.7 402.183L1845.16 385.131L1838.82 342.636L1924.62 373.399L1892.7 402.183ZM1942.02 357.71L1835.37 319.478L1829.03 276.949L1973.94 328.891L1942.02 357.71ZM1991.33 313.203L1825.55 253.757L1819.2 211.262L2023.26 284.418L1991.33 313.203ZM2072.57 239.91L2040.65 268.695L1815.73 188.07L1809.38 145.575L2072.57 239.91ZM1834.69 454.535L1783.84 436.323L1747.45 192.538L1564.47 357.676L1513.62 339.43L1781.42 97.7935L1834.69 454.535ZM1320.18 524.963L1352.06 496.144L1517.85 555.589L1524.19 598.084L1320.18 524.963ZM1527.67 621.276L1534.02 663.771L1270.86 569.436L1302.75 540.651L1527.67 621.276ZM1369.46 480.455L1401.38 451.67L1508.03 489.902L1514.41 532.432L1369.46 480.455ZM1418.81 435.948L1450.7 407.163L1498.24 424.215L1504.58 466.711L1418.81 435.948ZM1468.09 391.474L1490.33 371.386L1494.76 401.058L1468.09 391.474ZM1680.16 161.434L1648.23 190.219L1482.45 130.773L1476.11 88.278L1680.16 161.434ZM1472.63 65.0864L1466.28 22.5571L1729.47 116.926L1697.55 145.711L1472.63 65.0864ZM1630.84 205.907L1598.92 234.692L1492.27 196.46L1485.93 153.931L1630.84 205.907ZM1581.52 250.415L1549.64 279.2L1502.09 262.147L1495.75 219.652L1581.52 250.415ZM1532.21 294.888L1509.94 314.976L1505.5 285.339L1532.21 294.888ZM1778.79 72.4191L1746.87 101.204L1462.84 -0.634521L1456.49 -43.1298L1778.79 72.4191ZM1491.59 331.551L1440.74 313.339L1404.35 69.5542L1221.34 234.692L1170.49 216.446L1438.32 -25.1904L1491.59 331.551ZM977.076 401.979L1009 373.194L1174.78 432.639L1181.13 475.169L977.076 401.979ZM1184.57 498.292L1190.92 540.787L927.76 446.452L959.648 417.667L1184.57 498.292ZM1026.39 357.471L1058.28 328.686L1164.96 366.919L1171.31 409.414L1026.39 357.471ZM1075.71 312.964L1107.63 284.179L1155.17 301.232L1161.52 343.727L1075.71 312.964ZM1124.99 268.456L1147.26 248.368L1151.7 278.006L1124.99 268.456ZM1337.09 38.4161L1305.17 67.2009L1139.35 7.75537L1133.01 -34.7399L1337.09 38.4161ZM1129.56 -57.9315L1123.22 -100.427L1386.37 -6.09143L1354.49 22.6935L1129.56 -57.9315ZM1287.74 82.8894L1255.82 111.708L1149.14 73.4763L1142.79 30.9811L1287.74 82.8894ZM1238.46 127.397L1206.54 156.182L1158.96 139.129L1152.62 96.6339L1238.46 127.397ZM1189.14 171.904L1166.87 191.992L1162.44 162.355L1189.14 171.904ZM1435.69 -50.5647L1403.8 -21.7798L1119.77 -123.618L1113.39 -166.114L1435.69 -50.5647ZM1148.52 208.533L1097.67 190.321L1061.28 -53.4637L878.273 111.64L827.422 93.3938L1095.25 -148.242L1148.52 208.533ZM634.011 278.961L665.899 250.142L831.685 309.587L838.029 352.117L634.011 278.961ZM841.507 375.308L847.851 417.804L584.694 323.468L616.583 294.683L841.507 375.308ZM683.293 234.453L715.215 205.669L821.897 243.901L828.24 286.396L683.293 234.453ZM732.609 189.946L764.532 161.161L812.074 178.214L818.418 220.709L732.609 189.946ZM781.925 145.473L804.196 125.385L808.63 155.022L781.925 145.473ZM993.992 -84.5677L962.07 -55.7828L796.284 -115.228L789.94 -157.724L993.992 -84.5677ZM786.461 -180.915L780.118 -223.445L1043.27 -129.109L1011.39 -100.29L786.461 -180.915ZM944.676 -40.0944L912.753 -11.3095L806.072 -49.5416L799.728 -92.0368L944.676 -40.0944ZM895.36 4.41302L863.437 33.1979L815.894 16.1453L809.551 -26.35L895.36 4.41302ZM846.043 48.8864L823.773 68.9744L819.373 39.3369L846.043 48.8864ZM1092.59 -173.583L1060.7 -144.798L776.673 -246.602L770.329 -289.097L1092.59 -173.583ZM805.424 85.5496L754.573 67.3373L718.183 -176.447L535.207 -11.3095L484.356 -29.5558L752.186 -271.192L805.424 85.5496ZM290.911 155.977L322.834 127.192L488.62 186.638L494.997 229.167L290.911 155.977ZM498.408 252.291L504.751 294.786L241.561 200.45L273.483 171.666L498.408 252.291ZM340.227 111.47L372.15 82.6848L478.797 120.917L485.141 163.412L340.227 111.47ZM389.509 66.9622L421.432 38.1773L468.975 55.23L475.318 97.7252L389.509 66.9622ZM438.826 22.4548L461.097 2.3667L465.496 32.0042L438.826 22.4548ZM650.893 -207.586L619.004 -178.801L453.184 -238.246L446.841 -280.742L650.893 -207.586ZM443.362 -303.899L437.018 -346.394L700.175 -252.059L668.286 -223.24L443.362 -303.899ZM601.576 -163.112L569.654 -134.327L463.006 -172.525L456.663 -215.055L601.576 -163.112ZM552.26 -118.605L520.372 -89.82L472.829 -106.873L466.485 -149.368L552.26 -118.605ZM502.944 -74.0974L480.673 -54.0094L476.239 -83.6469L502.944 -74.0974ZM749.525 -296.566L717.637 -267.782L433.574 -369.62L427.23 -412.115L749.525 -296.566ZM409.052 -394.21L462.324 -37.4683L411.473 -55.6805L375.083 -299.465L192.108 -134.327L141.257 -152.54L409.052 -394.21ZM93.9527 -469.446L357.109 -375.111L325.221 -346.326L100.296 -426.951L93.9527 -469.446ZM103.775 -403.725L307.793 -330.569L275.905 -301.785L110.119 -361.23L103.775 -403.725ZM113.563 -338.073L258.511 -286.13L226.588 -257.345L119.907 -295.577L113.563 -338.073ZM123.386 -272.352L209.161 -241.589L177.272 -212.804L129.695 -229.856L123.386 -272.352ZM133.174 -206.665L159.878 -197.081L137.608 -176.993L133.174 -206.665ZM117.997 -120.617L122.431 -90.9454L95.7262 -100.495L117.997 -120.617ZM78.3325 -84.8406L125.875 -67.7879L132.219 -25.2927L46.4099 -56.0557L78.3325 -84.8406ZM29.0503 -40.3331L135.698 -2.10107L142.041 40.3942L-2.87227 -11.5482L29.0503 -40.3331ZM-20.266 4.17426L145.52 63.6199L151.864 106.149L-52.1886 32.9933L-20.266 4.17426ZM-101.505 77.4326L-69.5823 48.6476L155.308 129.273L161.652 171.768L-101.505 77.4326ZM136.346 -137.158L187.197 -118.946L223.587 124.839L406.596 -40.299L457.447 -22.0527L189.618 219.583L136.346 -137.158ZM192.278 244.958L224.167 216.173L508.23 318.011L514.574 360.507L192.278 244.958ZM479.445 -14.1744L530.262 4.0379L566.653 247.823L749.662 82.7188L800.513 100.931L532.718 342.567L479.445 -14.1744ZM535.378 367.942L567.301 339.157L851.296 440.961L857.673 483.49L535.378 367.942ZM822.545 108.809L873.396 127.022L909.786 370.807L1092.8 205.703L1143.65 223.949L875.817 465.585L822.545 108.809ZM878.443 490.96L910.332 462.141L1194.36 563.979L1200.7 606.508L878.443 490.96ZM1165.61 231.827L1216.43 250.04L1252.85 493.824L1435.83 328.721L1486.68 346.933L1218.88 588.569L1165.61 231.827ZM1221.54 613.943L1253.43 585.158L1537.49 686.997L1543.84 729.492L1221.54 613.943ZM1508.71 354.811L1559.56 373.057L1595.99 616.842L1778.99 451.738L1829.85 469.951L1562.05 711.587L1508.71 354.811Z" fill="#E3EEF5"/>
<path opacity="0.4" d="M2130.93 108.506L2118.27 103.902L2156.51 -0.255493L2168.37 4.07593L2176.93 -19.7979L168.097 -740L113.494 -587.686L2122.3 132.482L2130.93 108.506ZM174.236 -590.243L127.682 -613.503L182.796 -710.397L229.384 -687.137L174.236 -590.243ZM253.701 -564.289L204.624 -582.195L242.822 -686.352L291.899 -668.447L253.701 -564.289ZM279.314 -553.376L304.791 -661.592L355.096 -647.847L329.585 -539.631L279.314 -553.376ZM389.986 -515.416L340.908 -533.322L379.106 -637.479L428.218 -619.574L389.986 -515.416ZM447.624 -492.225L401.036 -515.485L456.15 -612.378L502.738 -589.118L447.624 -492.225ZM527.089 -466.271L478.012 -484.176L516.21 -588.334L565.321 -570.428L527.089 -466.271ZM552.703 -455.357L578.213 -563.573L628.519 -549.829L603.008 -441.612L552.703 -455.357ZM663.34 -417.432L614.297 -435.303L652.495 -539.461L701.572 -521.555L663.34 -417.432ZM721.012 -394.206L674.424 -417.466L729.573 -514.359L776.127 -491.099L721.012 -394.206ZM800.444 -368.286L751.366 -386.157L789.564 -490.315L838.642 -472.41L800.444 -368.286ZM826.057 -357.338L851.568 -465.554L901.907 -451.81L876.396 -343.594L826.057 -357.338ZM936.763 -319.413L887.685 -337.318L925.883 -441.476L974.961 -423.571L936.763 -319.413ZM994.401 -296.222L947.813 -319.481L1002.96 -416.375L1049.55 -393.115L994.401 -296.222ZM1073.83 -270.267L1024.79 -288.139L1062.99 -392.296L1112.06 -374.391L1073.83 -270.267ZM1099.44 -259.354L1124.92 -367.57L1175.23 -353.825L1149.72 -245.609L1099.44 -259.354ZM1210.15 -221.394L1161.07 -239.3L1199.31 -343.457L1248.38 -325.586L1210.15 -221.394ZM1267.75 -198.203L1221.17 -221.463L1276.28 -318.356L1322.87 -295.096L1267.75 -198.203ZM1347.22 -172.249L1298.14 -190.154L1336.34 -294.312L1385.42 -276.406L1347.22 -172.249ZM1372.83 -161.335L1398.31 -269.551L1448.62 -255.807L1423.1 -147.59L1372.83 -161.335ZM1483.51 -123.41L1434.43 -141.281L1472.63 -245.439L1521.7 -227.533L1483.51 -123.41ZM1541.14 -100.184L1494.56 -123.444L1549.7 -220.337L1596.26 -197.077L1541.14 -100.184ZM1620.61 -74.2299L1571.53 -92.1353L1609.73 -196.293L1658.81 -178.388L1620.61 -74.2299ZM1646.22 -63.3162L1671.7 -171.532L1722.04 -157.788L1696.53 -49.5718L1646.22 -63.3162ZM1756.89 -25.3911L1707.82 -43.2623L1746.01 -147.42L1795.09 -129.515L1756.89 -25.3911ZM1814.5 -2.19952L1767.94 -25.4593L1823.06 -122.353L1869.65 -99.0928L1814.5 -2.19952ZM1893.96 23.7546L1844.89 5.88348L1883.12 -98.2742L1932.19 -80.403L1893.96 23.7546ZM1919.58 34.7025L1945.09 -73.5137L1995.39 -59.7692L1969.88 48.4469L1919.58 34.7025ZM2030.28 72.6276L1981.2 54.7223L2019.44 -49.4354L2068.51 -31.53L2030.28 72.6276ZM2087.89 95.8192L2041.33 72.5594L2096.48 -24.3339L2143.03 -1.07404L2087.89 95.8192Z" fill="#E3EEF5"/>
<path opacity="0.4" d="M294.053 512.689L236.006 527.798L200.741 479.232L169.671 468.079L228.401 549.045L325.158 523.841L294.053 512.689Z" fill="#E3EEF5"/>
<path opacity="0.4" d="M568.975 611.253L510.893 626.362L475.629 577.796L444.559 566.644L503.288 647.575L600.045 622.372L568.975 611.253Z" fill="#E3EEF5"/>
<path opacity="0.4" d="M19.1628 414.123L-38.9185 429.266L-74.1835 380.666L-105.253 369.547L-46.524 450.479L50.2328 425.275L19.1628 414.123Z" fill="#E3EEF5"/>
<path opacity="0.4" d="M1118.79 808.345L1060.71 823.487L1025.47 774.887L994.37 763.769L1053.1 844.701L1149.86 819.497L1118.79 808.345Z" fill="#E3EEF5"/>
<path opacity="0.4" d="M1668.6 1005.48L1610.48 1020.59L1575.25 972.022L1544.18 960.87L1602.88 1041.8L1699.67 1016.6L1668.6 1005.48Z" fill="#E3EEF5"/>
<path opacity="0.4" d="M843.865 709.814L785.783 724.923L750.552 676.322L719.482 665.204L778.178 746.136L874.934 720.932L843.865 709.814Z" fill="#E3EEF5"/>
<path opacity="0.4" d="M1393.68 906.911L1335.59 922.019L1300.36 873.453L1269.29 862.301L1327.99 943.267L1424.75 918.063L1393.68 906.911Z" fill="#E3EEF5"/>
<path opacity="0.4" d="M1787.11 1067.55L1767.88 1041.05L1750.86 1034.98L1590.36 1076.79L1492.95 942.517L1475.97 936.412L1315.44 978.225L1218.07 843.952L1201.05 837.848L1040.55 879.661L943.143 745.388L926.158 739.283L765.625 781.096L668.254 646.858L651.235 640.753L490.736 682.566L393.331 548.293L376.346 542.188L215.847 584.002L118.442 449.729L101.423 443.624L-59.0763 485.437L-156.481 351.164L-173.466 345.094L-225.783 358.702L-233.389 379.915L-170.498 363.545L-66.6818 506.651L104.39 462.075L208.241 605.215L379.348 560.639L483.13 703.745L654.237 659.204L758.019 802.31L929.125 757.768L1032.94 900.874L1204.05 856.299L1307.87 999.438L1478.94 954.863L1582.75 1097.97L1753.86 1053.43L1779.51 1088.76L1787.11 1067.55Z" fill="#E3EEF5"/>
<path opacity="0.4" d="M1766.96 1123.71L1744.31 1092.51L1740.36 1091.08L1736.4 1089.68L1570.21 1132.96L1469.39 993.943L1465.43 992.511L1461.48 991.113L1295.32 1034.39L1194.5 895.413L1190.55 893.981L1186.59 892.548L1020.39 935.828L919.578 796.849L915.656 795.416L911.666 794.018L745.505 837.298L644.689 698.284L640.733 696.852L636.743 695.454L470.582 738.733L369.766 599.72L365.844 598.287L361.854 596.889L195.693 640.169L94.8776 501.155L90.9214 499.757L86.9651 498.325L-79.196 541.604L-180.045 402.625L-183.968 401.193L-187.924 399.794L-245.903 414.869L-253.508 436.082L-190.618 419.712L-86.8015 562.818L84.2708 518.276L188.087 661.382L359.194 616.841L462.976 759.947L634.083 715.371L737.899 858.477L909.006 813.935L1012.79 957.041L1183.89 912.5L1287.71 1055.61L1458.82 1011.06L1562.6 1154.17L1733.71 1109.59L1759.35 1144.96L1766.96 1123.71Z" fill="#E3EEF5"/>
<path opacity="0.4" d="M1746.8 1179.92L1724.16 1148.68L1720.2 1147.25L1716.24 1145.85L1550.08 1189.13L1449.27 1050.15L1445.31 1048.69L1441.32 1047.29L1275.16 1090.6L1174.34 951.589L1170.39 950.156L1166.43 948.758L1000.27 992.038L899.455 853.024L895.499 851.592L891.542 850.194L725.347 893.473L624.532 754.46L620.576 753.028L616.619 751.629L450.458 794.909L349.643 655.93L345.687 654.463L341.73 653.065L175.569 696.379L74.7199 557.365L70.7636 555.933L66.8074 554.535L-99.3537 597.814L-200.169 458.801L-204.125 457.369L-208.081 455.97L-266.061 471.079L-273.666 492.292L-210.776 475.922L-106.959 619.028L64.1131 574.452L167.964 717.592L339.036 673.016L442.853 816.122L613.959 771.581L717.742 914.687L888.848 870.145L992.665 1013.25L1163.74 968.676L1267.55 1111.82L1438.66 1067.24L1542.48 1210.35L1713.58 1165.8L1739.2 1201.14L1746.8 1179.92Z" fill="#E3EEF5"/>
<path opacity="0.4" d="M1726.68 1236.1L1704.03 1204.89L1700.08 1203.46L1696.09 1202.02L1529.93 1245.34L1429.11 1106.32L1425.15 1104.89L1421.2 1103.49L1255.04 1146.77L1154.22 1007.76L1150.27 1006.33L1146.31 1004.93L980.114 1048.21L879.299 909.196L875.343 907.763L871.387 906.365L705.191 949.645L604.41 810.666L600.454 809.233L596.464 807.801L430.302 851.114L329.487 712.101L325.531 710.669L321.575 709.27L155.414 752.55L54.5641 613.537L50.642 612.104L46.6858 610.706L-119.509 653.986L-220.325 514.972L-224.281 513.54L-228.237 512.142L-286.216 527.25L-293.822 548.464L-230.897 532.093L-127.115 675.199L43.9915 630.658L147.808 773.764L318.914 729.188L422.697 872.294L593.803 827.752L697.586 970.858L868.726 926.317L972.509 1069.42L1143.62 1024.88L1247.43 1167.99L1418.5 1123.41L1522.32 1266.52L1693.43 1221.98L1719.07 1257.31L1726.68 1236.1Z" fill="#E3EEF5"/>
<path opacity="0.4" d="M1706.52 1292.3L1683.88 1261.06L1679.92 1259.63L1675.96 1258.23L1509.77 1301.51L1408.95 1162.5L1405.03 1161.07L1401.04 1159.67L1234.88 1202.95L1134.06 1063.97L1130.11 1062.54L1126.15 1061.1L959.991 1104.38L859.176 965.405L855.219 963.972L851.263 962.574L685.068 1005.82L584.253 866.84L580.296 865.408L576.34 864.01L410.179 907.289L309.329 768.276L305.407 766.844L301.451 765.445L135.29 808.725L34.4406 669.746L30.4844 668.313L26.5281 666.881L-139.633 710.161L-240.448 571.181L-244.405 569.749L-248.361 568.351L-306.34 583.425L-313.945 604.639L-251.055 588.268L-147.238 731.374L23.8339 686.833L127.685 829.938L298.757 785.397L402.573 928.503L573.646 883.927L677.462 1027.03L848.569 982.492L952.385 1125.6L1123.46 1081.06L1227.27 1224.16L1398.38 1179.62L1502.16 1322.73L1673.27 1278.15L1698.92 1313.52L1706.52 1292.3Z" fill="#E3EEF5"/>
<path opacity="0.4" d="M1686.4 1348.47L1663.76 1317.23L1659.8 1315.8L1655.81 1314.4L1489.65 1357.68L1388.83 1218.7L1384.88 1217.27L1380.92 1215.84L1214.76 1259.12L1113.95 1120.14L1109.95 1118.7L1106 1117.31L939.838 1160.59L839.022 1021.57L835.066 1020.14L831.11 1018.74L664.914 1062.02L564.099 923.007L560.177 921.575L556.187 920.177L390.026 963.456L289.21 824.477L285.254 823.045L281.298 821.612L115.137 864.926L14.2872 725.913L10.331 724.48L6.37482 723.082L-159.786 766.362L-260.602 627.348L-264.558 625.916L-268.514 624.518L-326.493 639.592L-334.099 660.806L-271.174 644.435L-167.392 787.575L3.7146 743L107.531 886.105L278.638 841.564L382.42 984.67L553.527 940.094L657.309 1083.23L828.45 1038.66L932.232 1181.8L1103.34 1137.22L1207.16 1280.33L1378.23 1235.79L1482.04 1378.89L1653.15 1334.35L1678.8 1369.68L1686.4 1348.47Z" fill="#E3EEF5"/>
<path opacity="0.4" d="M1666.25 1404.65L1643.6 1373.44L1639.64 1372.01L1635.69 1370.58L1469.49 1413.86L1368.68 1274.88L1364.75 1273.44L1360.76 1272.05L1194.6 1315.33L1093.79 1176.31L1089.83 1174.88L1085.88 1173.48L919.714 1216.76L818.865 1077.75L814.943 1076.32L810.986 1074.92L644.791 1118.2L543.976 979.217L540.019 977.785L536.063 976.352L369.868 1019.63L269.053 880.653L265.131 879.22L261.14 877.822L94.9791 921.102L-5.83627 782.089L-9.79248 780.656L-13.7487 779.258L-179.91 822.537L-280.759 683.524L-284.681 682.092L-288.638 680.693L-346.617 695.802L-354.222 717.016L-291.332 700.645L-187.515 843.751L-16.443 799.175L87.3736 942.315L258.48 897.74L362.297 1040.85L533.369 996.304L637.186 1139.41L808.292 1094.87L912.109 1237.97L1083.18 1193.4L1187 1336.54L1358.1 1291.96L1461.89 1435.07L1632.99 1390.53L1658.64 1425.86L1666.25 1404.65Z" fill="#E3EEF5"/>
<path opacity="0.4" d="M1646.12 1460.82L1623.44 1429.61L1619.52 1428.18L1615.53 1426.78L1449.37 1470.06L1348.55 1331.05L1344.6 1329.61L1340.64 1328.22L1174.45 1371.5L1073.67 1232.48L1069.67 1231.05L1065.72 1229.65L899.557 1272.93L798.742 1133.95L794.786 1132.52L790.83 1131.12L624.634 1174.4L523.819 1035.39L519.897 1033.95L515.906 1032.56L349.745 1075.84L248.93 936.823L244.974 935.39L241.018 933.992L74.8564 977.272L-25.993 838.258L-29.9492 836.826L-33.9055 835.428L-200.067 878.707L-300.882 739.728L-304.838 738.296L-308.794 736.897L-366.773 751.972L-374.379 773.185L-311.489 756.815L-207.672 899.921L-36.5997 855.379L67.251 998.485L238.323 953.944L342.14 1097.05L513.246 1052.47L617.029 1195.58L788.135 1151.04L891.952 1294.14L1063.02 1249.6L1166.84 1392.71L1337.95 1348.17L1441.76 1491.27L1612.87 1446.7L1638.52 1482.06L1646.12 1460.82Z" fill="#E3EEF5"/>
<path opacity="0.4" d="M1625.96 1517.02L1603.32 1485.81L1599.36 1484.35L1595.37 1482.95L1429.21 1526.23L1328.4 1387.25L1324.44 1385.78L1320.48 1384.42L1154.32 1427.66L1053.51 1288.69L1049.55 1287.25L1045.59 1285.85L879.399 1329.13L778.584 1190.12L774.662 1188.69L770.671 1187.29L604.476 1230.57L503.695 1091.59L499.739 1090.12L495.748 1088.73L329.587 1132.01L228.772 993.026L224.85 991.594L220.859 990.196L54.6983 1033.48L-46.1512 894.462L-50.0732 893.03L-54.0295 891.631L-220.191 934.911L-321.04 795.898L-324.962 794.465L-328.952 793.067L-386.932 808.176L-394.503 829.355L-331.613 812.984L-243.314 934.74L-202.285 949.474L-56.7238 911.549L31.609 1033.3L72.6036 1048L218.199 1010.11L306.532 1131.87L347.527 1146.57L493.088 1108.68L581.421 1230.43L622.415 1245.13L768.011 1207.24L856.31 1328.96L897.339 1343.7L1042.9 1305.77L1131.23 1427.53L1172.23 1442.23L1317.82 1404.34L1406.12 1526.09L1447.15 1540.79L1592.71 1502.9L1618.36 1538.23L1625.96 1517.02Z" fill="#E3EEF5"/>
<path opacity="0.4" d="M429.86 1176.07L472.97 1164.85L499.128 1200.93L530.198 1212.05L483.542 1147.76L479.586 1146.33L475.63 1144.9L398.756 1164.92L429.86 1176.07Z" fill="#E3EEF5"/>
<path opacity="0.4" d="M154.937 1077.54L198.046 1066.28L224.204 1102.36L255.274 1113.48L208.618 1049.19L204.696 1047.76L200.74 1046.36L123.833 1066.38L154.937 1077.54Z" fill="#E3EEF5"/>
<path opacity="0.4" d="M-26.3015 1169.01L-105.46 1206.56L-68.1828 1285.82L10.9415 1248.27L-26.3015 1169.01Z" fill="#E3EEF5"/>
<path opacity="0.4" d="M1464.24 1968.1C1458.82 1967.66 1453.46 1967.01 1448.11 1966.09L1458.65 1904.94C1466.25 1906.24 1473.82 1906.82 1481.36 1906.75L1481.43 1920.15L1505.68 1852.52L1442.31 1882.6L1373.83 1736.97L1519.25 1668.01L1549.09 1731.48L1568.46 1677.49C1567.1 1676.26 1565.77 1674.97 1564.37 1673.77L1573.99 1662.08L1598.07 1594.96L-410.736 874.789L-418.785 897.264C-411.452 897.64 -404.188 898.424 -396.991 899.618L-407.393 960.803C-414.999 959.507 -422.604 958.927 -430.108 958.995L-430.312 929.392L-461.655 1016.84L-390.75 983.21L-322.301 1128.84L-467.692 1197.8L-501.081 1126.76L-521.612 1184.06C-518.884 1186.75 -515.985 1189.38 -513.018 1191.83L-533.14 1216.18L-552 1268.84L1456.8 1989.01L1464.24 1968.1ZM1367.52 1841.88L1314.21 1873.19C1308.55 1863.5 1303.74 1853.31 1299.85 1842.77L1357.69 1821.14C1360.39 1828.31 1363.66 1835.26 1367.52 1841.88ZM1351.69 1799.04L1290.95 1810.33C1288.94 1799.32 1287.81 1788.1 1287.71 1776.77L1349.51 1776.3C1349.58 1783.97 1350.33 1791.57 1351.69 1799.04ZM-113.576 1114.07C-120.158 1117.93 -126.4 1122.39 -132.232 1127.37L-172.203 1080.27C-163.609 1072.94 -154.434 1066.39 -144.748 1060.73L-113.576 1114.07ZM-114.429 1046.24C-103.924 1042.31 -93.0788 1039.28 -82.0287 1037.2L-70.8421 1098.08C-78.3794 1099.47 -85.7802 1101.52 -92.8741 1104.22L-114.429 1046.24ZM-161.255 1162.57L-215.005 1132.08C-209.378 1122.16 -203 1112.84 -195.906 1104.28L-148.329 1143.71C-153.138 1149.51 -157.436 1155.85 -161.255 1162.57ZM-176.603 1205.64L-237.515 1195.31C-235.639 1184.33 -232.842 1173.42 -228.988 1162.57L-170.702 1183.17C-173.397 1190.6 -175.307 1198.11 -176.603 1205.64ZM-205.149 1091.02L-220.667 1085.46C-221.11 1065.71 -224.35 1046.3 -230.114 1027.75L-161.187 1052.48C-177.455 1063.12 -192.257 1076.08 -205.149 1091.02ZM-254.602 1204.55C-255.011 1208.24 -255.318 1211.89 -255.522 1215.54L-260.843 1213.63C-258.728 1210.69 -256.648 1207.66 -254.602 1204.55ZM-220.974 1102.31L-215.653 1104.22C-217.802 1107.18 -219.882 1110.22 -221.895 1113.32C-221.485 1109.64 -221.178 1105.99 -220.974 1102.31ZM-247.474 1155.13L-305.589 1134.06C-302.997 1126.73 -301.121 1119.36 -299.859 1111.96L-238.947 1122.15C-240.789 1133.21 -243.586 1144.22 -247.474 1155.13ZM-315.411 1155.58L-261.73 1186.17C-267.357 1196.1 -273.769 1205.37 -280.897 1213.97L-328.371 1174.44C-323.563 1168.61 -319.231 1162.3 -315.411 1155.58ZM-271.381 1226.86L-255.863 1232.42C-255.42 1252.16 -252.18 1271.57 -246.382 1290.12L-315.309 1265.4C-299.075 1254.79 -284.239 1241.83 -271.381 1226.86ZM-237.071 1262.5C-239.084 1251.48 -240.209 1240.26 -240.311 1228.94L-178.513 1228.46C-178.479 1236.14 -177.694 1243.77 -176.364 1251.21L-237.071 1262.5ZM-170.327 1273.34C-167.633 1280.51 -164.393 1287.46 -160.505 1294.08L-213.812 1325.39C-219.473 1315.7 -224.248 1305.51 -228.17 1294.97L-170.327 1273.34ZM-154.196 1189.1L-8.77039 1120.14L59.7131 1265.77L-85.712 1334.73L-154.196 1189.1ZM268.404 1251.04C261.855 1254.93 255.614 1259.36 249.748 1264.34L209.811 1217.24C218.405 1209.91 227.579 1203.36 237.231 1197.7L268.404 1251.04ZM267.585 1183.2C278.089 1179.28 288.901 1176.25 299.985 1174.17L311.172 1235.04C303.634 1236.44 296.268 1238.49 289.14 1241.18L267.585 1183.2ZM220.758 1299.5L167.043 1269.01C172.636 1259.09 179.048 1249.78 186.142 1241.18L233.718 1280.61C228.91 1286.47 224.578 1292.78 220.758 1299.5ZM205.411 1342.61L144.533 1332.28C146.375 1321.3 149.171 1310.35 153.025 1299.54L211.311 1320.14C208.617 1327.57 206.707 1335.07 205.411 1342.61ZM176.865 1227.98L161.347 1222.42C160.904 1202.68 157.664 1183.27 151.9 1164.72L220.861 1189.44C204.558 1200.09 189.757 1213.01 176.865 1227.98ZM160.017 1250.43C160.426 1246.71 160.835 1242.99 161.074 1239.27L166.395 1241.18C164.178 1244.22 162.063 1247.29 160.017 1250.43ZM126.457 1352.5L121.137 1350.59C123.32 1347.59 125.366 1344.45 127.412 1341.32C127.003 1345.07 126.662 1348.78 126.457 1352.5ZM76.4588 1270.99C79.0508 1263.69 80.9266 1256.29 82.1544 1248.89L143.101 1259.09C141.225 1270.14 138.428 1281.15 134.574 1292.07L76.4588 1270.99ZM120.284 1323.14C114.657 1333.03 108.245 1342.34 101.117 1350.93L53.6423 1311.41C58.4512 1305.57 62.7825 1299.3 66.6024 1292.58L120.284 1323.14ZM142.521 1191.93C144.533 1202.92 145.727 1214.17 145.795 1225.49L83.9961 1226.11C83.9279 1218.43 83.1434 1210.83 81.7792 1203.36L142.521 1191.93ZM75.6744 1181.26C73.0142 1174.06 69.7401 1167.14 65.8862 1160.56L119.125 1129.11C124.786 1138.8 129.595 1149 133.517 1159.5L75.6744 1181.26ZM-1.88116 1350.76L19.5029 1408.78C8.99847 1412.7 -1.84705 1415.67 -12.8972 1417.71L-23.9473 1356.83C-16.41 1355.44 -9.00916 1353.39 -1.88116 1350.76ZM18.8208 1340.91C25.4373 1337.05 31.6444 1332.58 37.5105 1327.64L77.3796 1374.84C68.751 1382.14 59.5767 1388.65 49.9249 1394.32L18.8208 1340.91ZM110.632 1363.83L126.15 1369.38C126.594 1389.13 129.834 1408.54 135.632 1427.09L66.6706 1402.36C82.9388 1391.72 97.7746 1378.76 110.632 1363.83ZM144.942 1399.47C142.93 1388.45 141.805 1377.23 141.702 1365.91L203.501 1365.43C203.535 1373.1 204.286 1380.71 205.684 1388.18L144.942 1399.47ZM211.721 1410.28C214.347 1417.44 217.655 1424.4 221.475 1431.01L168.168 1462.32C162.541 1452.64 157.732 1442.44 153.81 1431.9L211.721 1410.28ZM227.818 1326.04L373.243 1257.08L441.727 1402.71L296.336 1471.67L227.818 1326.04ZM650.417 1387.97C643.869 1391.86 637.628 1396.29 631.796 1401.27L591.858 1354.17C600.453 1346.84 609.593 1340.29 619.279 1334.63L650.417 1387.97ZM649.599 1320.14C660.103 1316.21 670.915 1313.18 681.999 1311.1L693.185 1371.98C685.648 1373.37 678.247 1375.42 671.119 1378.12L649.599 1320.14ZM602.772 1436.47L549.056 1405.98C554.684 1396.05 561.061 1386.74 568.155 1378.15L615.732 1417.58C610.889 1423.41 606.558 1429.75 602.772 1436.47ZM587.425 1479.54L526.513 1469.21C528.388 1458.23 531.151 1447.28 535.005 1436.47L593.257 1457.07C590.631 1464.54 588.721 1472.04 587.425 1479.54ZM558.844 1364.95L543.327 1359.39C542.883 1339.64 539.677 1320.24 533.879 1301.69L602.84 1326.41C586.572 1337.02 571.77 1349.98 558.844 1364.95ZM542.099 1387.22C542.508 1383.57 542.849 1379.89 543.054 1376.21L548.374 1378.12C546.225 1381.12 544.145 1384.15 542.099 1387.22ZM508.471 1489.47L503.151 1487.56C505.299 1484.59 507.414 1481.56 509.426 1478.45C509.017 1482.14 508.676 1485.79 508.471 1489.47ZM458.473 1407.96C461.03 1400.63 462.906 1393.26 464.168 1385.86L525.114 1396.05C523.273 1407.1 520.442 1418.12 516.588 1429.03L458.473 1407.96ZM502.298 1460.07C496.671 1470 490.259 1479.27 483.131 1487.87L435.656 1448.34C440.499 1442.51 444.796 1436.23 448.616 1429.51L502.298 1460.07ZM524.5 1328.87C526.547 1339.88 527.706 1351.1 527.775 1362.43L466.01 1363.04C465.942 1355.37 465.191 1347.76 463.793 1340.29L524.5 1328.87ZM457.722 1318.19C455.062 1311.03 451.754 1304.07 447.9 1297.49L501.138 1266.05C506.834 1275.73 511.609 1285.93 515.531 1296.43L457.722 1318.19ZM380.133 1487.73L401.517 1545.71C391.012 1549.63 380.201 1552.63 369.117 1554.68L358.066 1493.77C365.604 1492.4 373.005 1490.36 380.133 1487.73ZM400.835 1477.87C407.417 1474.02 413.658 1469.55 419.524 1464.61L459.359 1511.81C450.765 1519.11 441.59 1525.62 431.904 1531.28L400.835 1477.87ZM492.646 1500.79L508.164 1506.35C508.607 1526.1 511.847 1545.5 517.611 1564.06L448.65 1539.33C464.953 1528.69 479.754 1515.73 492.646 1500.79ZM526.922 1536.4C524.91 1525.38 523.784 1514.16 523.716 1502.84L585.515 1502.36C585.549 1510.03 586.333 1517.67 587.698 1525.11L526.922 1536.4ZM593.7 1547.24C596.36 1554.41 599.634 1561.36 603.488 1567.98L550.182 1599.29C544.52 1589.6 539.745 1579.41 535.823 1568.87L593.7 1547.24ZM609.832 1463L755.257 1394.04L823.706 1539.67L678.315 1608.63L609.832 1463ZM1032.43 1524.94C1025.88 1528.83 1019.64 1533.26 1013.81 1538.24L973.872 1491.14C982.467 1483.81 991.607 1477.26 1001.29 1471.56L1032.43 1524.94ZM1031.61 1457.1C1042.12 1453.18 1052.96 1450.15 1064.01 1448.07L1075.2 1508.94C1067.66 1510.34 1060.3 1512.39 1053.13 1515.08L1031.61 1457.1ZM984.786 1573.44L931.07 1542.95C936.663 1533.02 943.075 1523.71 950.169 1515.12L997.746 1554.54C992.903 1560.37 988.572 1566.68 984.786 1573.44ZM969.438 1616.51L908.561 1606.18C910.436 1595.2 913.199 1584.25 917.053 1573.44L975.305 1594C972.61 1601.47 970.734 1608.97 969.438 1616.51ZM940.858 1501.88L925.34 1496.32C924.897 1476.58 921.657 1457.17 915.893 1438.62L984.854 1463.34C968.586 1473.99 953.75 1486.91 940.858 1501.88ZM924.147 1524.19C924.556 1520.54 924.863 1516.86 925.068 1513.21L930.388 1515.12C928.239 1518.05 926.125 1521.09 924.147 1524.19ZM890.485 1626.4L885.164 1624.49C887.313 1621.53 889.393 1618.49 891.44 1615.42C890.996 1619.1 890.689 1622.75 890.485 1626.4ZM840.452 1544.92C843.044 1537.63 844.886 1530.23 846.148 1522.82L907.094 1533.02C905.252 1544.07 902.422 1555.09 898.568 1566L840.452 1544.92ZM884.312 1597.04C878.65 1606.93 872.272 1616.24 865.144 1624.83L817.636 1585.31C822.445 1579.47 826.776 1573.2 830.596 1566.48L884.312 1597.04ZM906.514 1465.83C908.561 1476.85 909.686 1488.04 909.788 1499.39L847.99 1500.01C847.921 1492.3 847.171 1484.73 845.773 1477.23L906.514 1465.83ZM839.702 1455.16C837.042 1448 833.733 1441.04 829.88 1434.46L883.118 1403.01C888.779 1412.7 893.588 1422.9 897.51 1433.4L839.702 1455.16ZM762.146 1624.66L783.564 1682.68C773.06 1686.6 762.215 1689.57 751.13 1691.61L740.114 1630.73C747.617 1629.34 754.984 1627.32 762.146 1624.66ZM782.882 1614.81C789.465 1610.95 795.672 1606.52 801.572 1601.54L841.407 1648.74C832.813 1656.04 823.604 1662.55 813.952 1668.22L782.882 1614.81ZM874.66 1637.73L890.178 1643.28C890.621 1663.03 893.861 1682.44 899.659 1700.99L830.698 1676.26C846.966 1665.62 861.768 1652.7 874.66 1637.73ZM908.936 1673.37C906.923 1662.35 905.798 1651.13 905.696 1639.81L967.495 1639.33C967.529 1647.04 968.313 1654.64 969.677 1662.08L908.936 1673.37ZM975.714 1684.21C978.374 1691.37 981.648 1698.33 985.502 1704.95L932.196 1736.26C926.534 1726.57 921.759 1716.37 917.871 1705.83L975.714 1684.21ZM991.846 1599.94L1137.27 1530.98L1205.72 1676.61L1060.33 1745.57L991.846 1599.94ZM1366.77 1710.37L1313.05 1679.88C1318.64 1669.95 1325.05 1660.64 1332.15 1652.05L1379.73 1691.48C1374.92 1697.34 1370.59 1703.65 1366.77 1710.37ZM1351.45 1753.48L1290.54 1743.14C1292.42 1732.16 1295.18 1721.22 1299.07 1710.4L1357.32 1730.97C1354.62 1738.44 1352.71 1745.94 1351.45 1753.48ZM1322.87 1638.85L1307.35 1633.29C1306.91 1613.54 1303.67 1594.1 1297.87 1575.59L1366.83 1600.31C1350.6 1610.92 1335.76 1623.88 1322.87 1638.85ZM1306.13 1661.16C1306.54 1657.51 1306.88 1653.82 1307.08 1650.14L1312.4 1652.05C1310.22 1655.02 1308.14 1658.05 1306.13 1661.16ZM1272.5 1763.37L1267.18 1761.46C1269.36 1758.49 1271.44 1755.46 1273.45 1752.35C1273.01 1756.04 1272.7 1759.69 1272.5 1763.37ZM1222.5 1681.86C1225.06 1674.52 1226.93 1667.16 1228.2 1659.76L1289.14 1669.95C1287.3 1681 1284.47 1692.02 1280.62 1702.93L1222.5 1681.86ZM1266.33 1734C1260.66 1743.9 1254.29 1753.21 1247.16 1761.8L1199.68 1722.27C1204.53 1716.44 1208.82 1710.17 1212.64 1703.45L1266.33 1734ZM1288.53 1602.77C1290.57 1613.78 1291.73 1625 1291.84 1636.33L1230 1636.94C1229.97 1629.27 1229.18 1621.66 1227.82 1614.19L1288.53 1602.77ZM1221.72 1592.09C1219.06 1584.93 1215.78 1577.97 1211.89 1571.39L1265.13 1539.95C1270.83 1549.67 1275.6 1559.83 1279.56 1570.37L1221.72 1592.09ZM1144.16 1761.63L1165.58 1819.64C1155.07 1823.57 1144.23 1826.53 1133.14 1828.58L1122.13 1767.7C1129.63 1766.3 1137.03 1764.26 1144.16 1761.63ZM1164.86 1751.77C1171.44 1747.92 1177.69 1743.49 1183.55 1738.51L1223.39 1785.71C1214.76 1793.01 1205.58 1799.52 1195.93 1805.18L1164.86 1751.77ZM1256.67 1774.69L1272.19 1780.25C1272.63 1800 1275.87 1819.4 1281.67 1837.96L1212.71 1813.23C1228.98 1802.59 1243.78 1789.66 1256.67 1774.69ZM1395.79 1675.21L1355.82 1628.11C1364.41 1620.77 1373.59 1614.23 1383.24 1608.57L1414.41 1661.91C1407.86 1665.76 1401.66 1670.23 1395.79 1675.21ZM1435.15 1652.02L1413.63 1594.07C1424.1 1590.11 1434.94 1587.11 1446.03 1585.03L1457.21 1645.91C1449.64 1647.27 1442.27 1649.32 1435.15 1652.02ZM1546.13 1592.94C1556.53 1596.7 1566.52 1601.3 1576.07 1606.69L1545.58 1660.71C1539.17 1657.06 1532.38 1653.89 1525.18 1651.33C1525.05 1651.3 1524.91 1651.27 1524.78 1651.2L1545.51 1592.74C1545.72 1592.84 1545.92 1592.88 1546.13 1592.94ZM1513.01 1584.38L1502.64 1645.5C1495.04 1644.24 1487.43 1643.63 1479.89 1643.66L1479.48 1581.69C1490.6 1581.55 1501.82 1582.47 1513.01 1584.38ZM1470.82 1566.27C1440.64 1567.84 1411.31 1575.96 1384.84 1589.77L1290.68 1556.01C1279.01 1528.55 1261.55 1503.66 1239.21 1483.26L1470.82 1566.27ZM1221.78 1488.86C1230.51 1496.09 1238.5 1504 1245.69 1512.56L1198.66 1552.73C1193.72 1546.97 1188.33 1541.58 1182.39 1536.67L1221.78 1488.86ZM1164.11 1456.01C1174.65 1459.8 1184.61 1464.44 1194.06 1469.79L1163.6 1523.78C1157.15 1520.13 1150.37 1516.99 1143.21 1514.4C1143.07 1514.37 1142.93 1514.33 1142.8 1514.26L1163.53 1455.81C1163.74 1455.88 1163.94 1455.94 1164.11 1456.01ZM1131.03 1447.42L1120.63 1508.5C1113.02 1507.24 1105.45 1506.62 1097.88 1506.66L1097.47 1444.72C1108.59 1444.62 1119.81 1445.54 1131.03 1447.42ZM1088.84 1429.34C1058.62 1430.91 1029.33 1439.03 1002.86 1452.84L908.697 1419.08C897.033 1391.62 879.571 1366.69 857.232 1346.3L1088.84 1429.34ZM839.77 1351.89C848.501 1359.12 856.448 1367.03 863.678 1375.59L816.647 1415.8C811.735 1410.04 806.313 1404.65 800.412 1399.74L839.77 1351.89ZM782.132 1319.05C792.636 1322.83 802.595 1327.47 812.042 1332.82L781.586 1386.81C775.141 1383.16 768.354 1380.03 761.191 1377.43C761.055 1377.4 760.919 1377.33 760.782 1377.3L781.484 1318.84C781.723 1318.94 781.927 1318.98 782.132 1319.05ZM749.016 1310.45L738.614 1371.57C731.008 1370.31 723.403 1369.69 715.9 1369.73L715.49 1307.79C726.575 1307.65 737.795 1308.57 749.016 1310.45ZM706.793 1292.37C676.61 1293.94 647.28 1302.06 620.848 1315.87L526.649 1282.11C514.985 1254.65 497.523 1229.76 475.184 1209.36L706.793 1292.37ZM457.756 1214.96C466.453 1222.19 474.434 1230.1 481.664 1238.62L434.633 1278.83C429.722 1273.07 424.299 1267.68 418.365 1262.77L457.756 1214.96ZM400.084 1182.11C410.623 1185.9 420.582 1190.54 430.029 1195.89L399.573 1249.88C393.161 1246.26 386.34 1243.09 379.144 1240.5C379.007 1240.47 378.905 1240.43 378.768 1240.36L399.47 1181.91C399.709 1181.98 399.914 1182.04 400.084 1182.11ZM367.002 1173.52L356.6 1234.6C348.995 1233.34 341.423 1232.72 333.886 1232.76L333.477 1170.82C344.561 1170.72 355.781 1171.64 367.002 1173.52ZM324.814 1155.41C294.631 1156.98 265.3 1165.09 238.834 1178.91L144.669 1145.14C133.005 1117.69 115.544 1092.76 93.2045 1072.36L324.814 1155.41ZM75.7426 1077.99C84.4395 1085.22 92.4201 1093.13 99.6504 1101.69L52.5851 1141.9C47.6739 1136.1 42.2512 1130.72 36.351 1125.84L75.7426 1077.99ZM18.1046 1045.15C28.6431 1048.93 38.6019 1053.57 48.049 1058.92L17.593 1112.91C11.1471 1109.26 4.36017 1106.13 -2.80194 1103.53C-2.93835 1103.5 -3.07483 1103.47 -3.21124 1103.4L17.4907 1044.94C17.6953 1045.04 17.9 1045.08 18.1046 1045.15ZM-15.0117 1036.55L-25.3797 1097.67C-32.9852 1096.41 -40.5907 1095.76 -48.128 1095.83L-48.5372 1033.86C-37.4189 1033.75 -26.2323 1034.67 -15.0117 1036.55ZM-57.2 1018.47C-87.3832 1020.04 -116.714 1028.19 -143.179 1041.97L-237.344 1008.21C-249.008 980.754 -266.47 955.857 -288.809 935.462L-57.2 1018.47ZM-364.421 975.945C-370.867 972.296 -377.654 969.159 -384.816 966.567C-384.986 966.498 -385.089 966.464 -385.225 966.43L-364.523 907.974C-364.318 908.042 -364.114 908.11 -363.909 908.178C-353.371 911.964 -343.412 916.602 -333.999 921.957L-364.421 975.945ZM-345.629 988.871L-306.271 941.022C-297.574 948.252 -289.594 956.198 -282.363 964.725L-329.429 1004.9C-334.306 999.137 -339.728 993.748 -345.629 988.871ZM-316.128 1023.59L-262.889 992.146C-257.228 1001.83 -252.419 1012.03 -248.497 1022.53L-306.305 1044.29C-308.965 1037.1 -312.274 1030.17 -316.128 1023.59ZM-300.2 1066.39L-239.493 1054.97C-237.447 1065.95 -236.321 1077.17 -236.219 1088.53L-298.018 1089.14C-298.086 1081.47 -298.836 1073.86 -300.2 1066.39ZM-344.503 1190.67L-304.668 1237.87C-313.263 1245.17 -322.471 1251.69 -332.123 1257.35L-363.193 1203.94C-356.611 1200.12 -350.335 1195.65 -344.503 1190.67ZM-383.895 1213.83L-362.511 1271.81C-373.015 1275.73 -383.861 1278.7 -394.911 1280.78L-405.961 1219.87C-398.39 1218.47 -391.023 1216.46 -383.895 1213.83ZM-494.601 1272.73C-505.173 1268.94 -515.303 1264.31 -524.92 1258.78L-494.294 1204.79C-487.78 1208.51 -480.925 1211.75 -473.66 1214.34L-473.524 1214.38L-494.396 1272.76L-494.601 1272.73ZM-461.894 1281.26L-451.389 1220.17C-443.818 1221.47 -436.178 1222.12 -428.675 1222.05L-428.368 1284.02C-439.487 1284.12 -450.707 1283.17 -461.894 1281.26ZM-419.296 1299.43C-389.113 1297.87 -359.782 1289.71 -333.351 1275.94L-239.186 1309.7C-227.522 1337.15 -210.06 1362.09 -187.721 1382.48L-419.296 1299.43ZM-170.566 1376.61C-179.263 1369.38 -187.209 1361.4 -194.406 1352.84L-147.306 1312.74C-142.395 1318.53 -137.006 1323.92 -131.106 1328.83L-170.566 1376.61ZM-112.587 1409.7C-123.262 1405.88 -133.357 1401.17 -142.873 1395.71L-112.314 1341.79C-105.834 1345.48 -98.9449 1348.72 -91.6804 1351.31L-91.544 1351.38L-112.417 1409.77L-112.587 1409.7ZM-79.9142 1418.22L-69.4097 1357.14C-61.8042 1358.44 -54.1987 1359.08 -46.6956 1359.02L-46.3885 1420.99C-57.4728 1421.09 -68.6935 1420.13 -79.9142 1418.22ZM-37.2825 1436.37C-7.09924 1434.8 22.2313 1426.68 48.697 1412.87L142.862 1446.63C154.526 1474.09 171.988 1499.02 194.327 1519.38L-37.2825 1436.37ZM211.448 1513.58C202.751 1506.35 194.804 1498.37 187.608 1489.81L234.708 1449.7C239.619 1455.5 245.007 1460.89 250.908 1465.8L211.448 1513.58ZM269.393 1546.63C258.752 1542.81 248.657 1538.1 239.107 1532.65L269.7 1478.73C276.18 1482.41 283.069 1485.62 290.333 1488.24L290.47 1488.31L269.597 1546.7L269.393 1546.63ZM302.134 1555.16L312.638 1494.07C320.244 1495.37 327.849 1496.02 335.352 1495.95L335.659 1557.92C324.541 1558.02 313.32 1557.07 302.134 1555.16ZM344.731 1573.33C374.914 1571.77 404.245 1563.61 430.711 1549.84L524.876 1583.6C536.54 1611.05 554.002 1635.99 576.341 1656.35L344.731 1573.33ZM593.427 1650.51C584.73 1643.28 576.784 1635.27 569.588 1626.74L616.721 1586.67C621.598 1592.47 627.021 1597.86 632.921 1602.77L593.427 1650.51ZM651.44 1683.6C640.766 1679.78 630.67 1675.07 621.121 1669.61L651.679 1615.69C658.193 1619.38 665.048 1622.62 672.347 1625.21L672.484 1625.24L651.611 1683.63L651.44 1683.6ZM684.113 1692.12L694.652 1631.04C702.257 1632.34 709.829 1632.98 717.366 1632.92L717.673 1694.89C706.555 1694.99 695.334 1694.03 684.113 1692.12ZM726.711 1710.3C756.928 1708.73 786.225 1700.62 812.691 1686.8L906.855 1720.57C918.519 1748.02 935.981 1772.95 958.32 1793.35L726.711 1710.3ZM975.441 1787.48C966.744 1780.25 958.798 1772.27 951.601 1763.71L998.735 1723.64C1003.65 1729.43 1009.03 1734.82 1014.94 1739.73L975.441 1787.48ZM1033.45 1820.56C1022.78 1816.74 1012.68 1812 1003.17 1806.58L1033.73 1752.66C1040.24 1756.34 1047.1 1759.58 1054.39 1762.18L1054.53 1762.24L1033.66 1820.63L1033.45 1820.56ZM1066.13 1829.09L1076.63 1768.01C1084.2 1769.3 1091.81 1769.95 1099.35 1769.88L1099.65 1831.85C1088.57 1831.92 1077.35 1831 1066.13 1829.09ZM1108.76 1847.27C1138.94 1845.7 1168.27 1837.55 1194.74 1823.77L1288.9 1857.53C1300.57 1884.99 1318.06 1909.92 1340.37 1930.31L1108.76 1847.27ZM1357.45 1924.41C1348.76 1917.18 1340.81 1909.17 1333.62 1900.64L1380.75 1860.57C1385.63 1866.37 1391.05 1871.76 1396.95 1876.67L1357.45 1924.41ZM1415.43 1957.5C1404.76 1953.68 1394.66 1948.97 1385.15 1943.51L1415.71 1889.59C1422.22 1893.28 1429.08 1896.52 1436.34 1899.11L1436.48 1899.18L1415.6 1957.56L1415.43 1957.5Z" fill="#E3EEF5"/>
</g>
</g>
<defs>
<linearGradient id="paint0_linear" x1="-552.426" y1="437.245" x2="163.41" y2="437.245" gradientUnits="userSpaceOnUse">
<stop stop-color="#CBDAE4"/>
<stop offset="1" stop-color="#CBDAE4" stop-opacity="0"/>
</linearGradient>
<clipPath id="clip0">
<rect width="1752" height="1243" fill="white"/>
</clipPath>
</defs>
</svg>
