<svg width="1440" height="900" viewBox="0 0 1440 900" fill="none" xmlns="http://www.w3.org/2000/svg">
<g clip-path="url(#clip0)">
<rect width="1752" height="1243" transform="translate(-156 -168)" fill="var(--background-image-color)"/>
<rect x="-1686" y="-133.639" width="1955.15" height="1180.3" fill="url(#paint0_linear)"/>
<g opacity="0.25">
<path opacity="0.4" d="M1667.71 797.474L1632.24 859.785L1585.65 836.491L1640.8 739.597L1681.21 759.788L1690.76 733.186L-318.04 13.0176L-326.635 36.9595L-303.204 45.4859L-341.436 149.644L-364.082 141.39L-372.677 165.332L1636.13 885.5L1667.71 797.474ZM-281.411 173.722L-327.999 150.462L-272.85 53.5688L-226.263 76.8628L-281.411 173.722ZM-204.333 198.789L-253.41 180.918L-215.178 76.7604L-166.101 94.6317L-204.333 198.789ZM-180.323 209.157L-154.846 100.941L-104.541 114.686L-130.051 222.902L-180.323 209.157ZM-68.0821 247.662L-117.126 229.791L-78.9276 125.633L-29.85 143.505L-68.0821 247.662ZM-8.02264 271.741L-54.6105 248.447L0.537811 151.553L47.0916 174.847L-8.02264 271.741ZM69.0213 296.808L19.9438 278.937L58.1417 174.779L107.219 192.65L69.0213 296.808ZM93.0315 307.176L118.542 198.96L168.848 212.704L143.337 320.92L93.0315 307.176ZM205.306 345.647L156.229 327.776L194.427 223.618L243.504 241.489L205.306 345.647ZM265.366 369.725L218.778 346.431L273.892 249.538L320.48 272.832L265.366 369.725ZM342.41 394.827L293.332 376.956L331.564 272.798L380.642 290.669L342.41 394.827ZM366.42 405.161L391.896 296.944L442.202 310.689L416.725 418.905L366.42 405.161ZM478.694 443.666L429.617 425.794L467.815 321.637L516.892 339.508L478.694 443.666ZM538.754 467.744L492.166 444.45L547.314 347.557L593.868 370.851L538.754 467.744ZM615.798 492.811L566.72 474.94L604.952 370.782L654.03 388.654L615.798 492.811ZM639.808 503.179L665.285 394.963L715.624 408.708L690.147 516.924L639.808 503.179ZM752.083 541.684L703.005 523.813L741.203 419.655L790.281 437.527L752.083 541.684ZM812.108 565.763L765.52 542.469L820.703 445.575L867.256 468.869L812.108 565.763ZM889.152 590.83L840.074 572.959L878.272 468.801L927.35 486.672L889.152 590.83ZM913.162 601.198L938.673 492.982L988.978 506.726L963.502 614.943L913.162 601.198ZM1025.47 639.703L976.393 621.832L1014.59 517.674L1063.67 535.545L1025.47 639.703ZM1085.5 663.747L1038.94 640.487L1094.06 543.594L1140.64 566.888L1085.5 663.747ZM1162.54 688.849L1113.46 670.978L1151.69 566.82L1200.74 584.691L1162.54 688.849ZM1186.55 699.217L1212.03 591L1262.33 604.745L1236.86 712.961L1186.55 699.217ZM1298.83 737.688L1249.75 719.816L1287.98 615.659L1337.06 633.53L1298.83 737.688ZM1358.88 761.766L1312.3 738.472L1367.45 641.613L1414.03 664.907L1358.88 761.766ZM1435.93 786.867L1386.85 768.996L1425.05 664.839L1474.13 682.71L1435.93 786.867ZM1459.94 797.201L1485.42 688.985L1535.72 702.73L1510.24 810.946L1459.94 797.201ZM1572.21 835.706L1523.14 817.835L1561.37 713.677L1610.45 731.549L1572.21 835.706Z" fill="#E3EEF5"/>
<path opacity="0.4" d="M1710.78 677.28L1408.64 568.962L1440.53 540.177L1723.57 641.64L1738.95 598.77L1695.81 309.864L1746.66 328.11L1772.92 504.025L1884.51 192.746L1751.57 312.729L1700.72 294.516L1918.48 98.0355L1933.49 56.1541L1649.94 -45.6161L1643.59 -88.1114L1946.28 20.4117L1953.24 0.971741L-55.5672 -719.196L-62.5247 -699.756L250.426 -587.55L218.503 -558.765L-65.526 -660.603L-68.766 -682.363L-83.4654 -641.334L-36.7411 -328.418L-87.5921 -346.664L-117.434 -546.589L-243.488 -195.066L-92.5033 -331.316L-41.6523 -313.07L-277.456 -100.321L-292.156 -59.2924L-274.899 -74.8785L9.13058 26.96L15.4742 69.4552L-298.022 -42.9559L-304.979 -23.5159L1703.82 696.652L1710.78 677.28ZM1721.12 618.79L1457.96 524.454L1489.85 495.669L1714.77 576.294L1721.12 618.79ZM1711.29 553.103L1507.24 479.947L1539.16 451.162L1704.95 510.608L1711.29 553.103ZM1701.51 487.416L1556.56 435.474L1588.48 406.689L1695.16 444.921L1701.51 487.416ZM1691.68 421.729L1605.87 390.966L1637.76 362.181L1685.3 379.234L1691.68 421.729ZM1681.86 356.042L1655.16 346.459L1677.43 326.371L1681.86 356.042ZM1697.04 269.995L1692.6 240.357L1719.31 249.941L1697.04 269.995ZM1736.7 234.184L1689.16 217.131L1682.82 174.636L1768.62 205.399L1736.7 234.184ZM1786.02 189.711L1679.37 151.479L1673.03 108.949L1817.94 160.892L1786.02 189.711ZM1835.33 145.203L1669.55 85.7576L1663.2 43.2623L1867.26 116.418L1835.33 145.203ZM1916.57 71.9108L1884.65 100.696L1659.73 20.0707L1653.38 -22.4246L1916.57 71.9108ZM1678.69 286.536L1627.84 268.323L1591.45 24.5385L1408.47 189.676L1357.62 171.43L1625.42 -70.2061L1678.69 286.536ZM1164.18 356.963L1196.06 328.144L1361.85 387.59L1368.19 430.085L1164.18 356.963ZM1371.67 453.276L1378.02 495.772L1114.86 401.436L1146.75 372.652L1371.67 453.276ZM1213.46 312.456L1245.38 283.671L1352.03 321.903L1358.41 364.432L1213.46 312.456ZM1262.81 267.948L1294.7 239.163L1342.24 256.216L1348.58 298.711L1262.81 267.948ZM1312.09 223.475L1334.33 203.387L1338.76 233.058L1312.09 223.475ZM1524.16 -6.56555L1492.23 22.2193L1326.45 -37.2263L1320.11 -79.7215L1524.16 -6.56555ZM1316.63 -102.913L1310.28 -145.442L1573.47 -51.0731L1541.55 -22.2881L1316.63 -102.913ZM1474.84 37.9078L1442.92 66.6927L1336.27 28.4606L1329.93 -14.0687L1474.84 37.9078ZM1425.52 82.4152L1393.64 111.2L1346.09 94.1474L1339.75 51.6522L1425.52 82.4152ZM1376.21 126.889L1353.94 146.977L1349.5 117.339L1376.21 126.889ZM1622.79 -95.5804L1590.87 -66.7955L1306.84 -168.634L1300.49 -211.129L1622.79 -95.5804ZM1335.59 163.552L1284.74 145.34L1248.35 -98.4453L1065.34 66.6927L1014.49 48.4463L1282.32 -193.19L1335.59 163.552ZM821.076 233.979L852.999 205.194L1018.78 264.64L1025.13 307.169L821.076 233.979ZM1028.57 330.293L1034.92 372.788L771.76 278.453L803.648 249.668L1028.57 330.293ZM870.392 189.472L902.281 160.687L1008.96 198.919L1015.31 241.414L870.392 189.472ZM919.709 144.964L951.631 116.18L999.174 133.232L1005.52 175.727L919.709 144.964ZM968.991 100.457L991.262 80.3689L995.695 110.006L968.991 100.457ZM1181.09 -129.583L1149.17 -100.799L983.349 -160.244L977.005 -202.739L1181.09 -129.583ZM973.561 -225.931L967.217 -268.426L1230.37 -174.091L1198.49 -145.306L973.561 -225.931ZM1131.74 -85.1101L1099.82 -56.2911L993.137 -94.5232L986.794 -137.018L1131.74 -85.1101ZM1082.46 -40.6027L1050.54 -11.8178L1002.96 -28.8704L996.616 -71.3657L1082.46 -40.6027ZM1033.14 3.90479L1010.87 23.9928L1006.44 -5.64471L1033.14 3.90479ZM1279.69 -218.564L1247.8 -189.779L963.773 -291.618L957.395 -334.113L1279.69 -218.564ZM992.523 40.5339L941.672 22.3217L905.282 -221.463L722.273 -56.3593L671.422 -74.6057L939.251 -316.242L992.523 40.5339ZM478.011 110.961L509.899 82.1424L675.685 141.588L682.029 184.117L478.011 110.961ZM685.507 207.309L691.851 249.804L428.694 155.469L460.583 126.684L685.507 207.309ZM527.293 66.4539L559.215 37.6691L665.897 75.9011L672.24 118.396L527.293 66.4539ZM576.609 21.9465L608.532 -6.83844L656.074 10.2142L662.418 52.7095L576.609 21.9465ZM625.925 -22.5269L648.196 -42.6149L652.63 -12.9774L625.925 -22.5269ZM837.992 -252.567L806.07 -223.782L640.284 -283.228L633.94 -325.723L837.992 -252.567ZM630.461 -348.915L624.118 -391.444L887.274 -297.109L855.386 -268.29L630.461 -348.915ZM788.676 -208.094L756.753 -179.309L650.072 -217.541L643.728 -260.036L788.676 -208.094ZM739.36 -163.586L707.437 -134.802L659.894 -151.854L653.551 -194.349L739.36 -163.586ZM690.043 -119.113L667.773 -99.0251L663.373 -128.663L690.043 -119.113ZM936.591 -341.582L904.702 -312.797L620.673 -414.602L614.329 -457.097L936.591 -341.582ZM649.424 -82.4499L598.573 -100.662L562.183 -344.447L379.207 -179.309L328.356 -197.555L596.186 -439.192L649.424 -82.4499ZM134.911 -12.0224L166.834 -40.8073L332.62 18.6382L338.997 61.1676L134.911 -12.0224ZM342.408 84.291L348.751 126.786L85.5606 32.4509L117.483 3.66608L342.408 84.291ZM184.227 -56.5298L216.15 -85.3148L322.797 -47.0827L329.141 -4.58746L184.227 -56.5298ZM233.509 -101.037L265.432 -129.822L312.975 -112.77L319.318 -70.2743L233.509 -101.037ZM282.826 -145.545L305.097 -165.633L309.496 -135.995L282.826 -145.545ZM494.893 -375.585L463.004 -346.8L297.184 -406.246L290.841 -448.741L494.893 -375.585ZM287.362 -471.899L281.018 -514.394L544.175 -420.058L512.286 -391.24L287.362 -471.899ZM445.576 -331.112L413.654 -302.327L307.006 -340.525L300.663 -383.054L445.576 -331.112ZM396.26 -286.604L364.372 -257.819L316.829 -274.872L310.485 -317.367L396.26 -286.604ZM346.944 -242.097L324.673 -222.009L320.239 -251.646L346.944 -242.097ZM593.525 -464.566L561.637 -435.781L277.574 -537.62L271.23 -580.115L593.525 -464.566ZM253.052 -562.209L306.324 -205.468L255.473 -223.68L219.083 -467.465L36.1079 -302.327L-14.7432 -320.539L253.052 -562.209ZM-62.0473 -637.446L201.109 -543.11L169.221 -514.326L-55.7037 -594.951L-62.0473 -637.446ZM-52.2249 -571.725L151.793 -498.569L119.905 -469.784L-45.8813 -529.23L-52.2249 -571.725ZM-42.4367 -506.072L102.511 -454.13L70.5883 -425.345L-36.0931 -463.577L-42.4367 -506.072ZM-32.6144 -440.351L53.1605 -409.588L21.2721 -380.803L-26.3049 -397.856L-32.6144 -440.351ZM-22.8261 -374.664L3.87836 -365.081L-18.3925 -344.993L-22.8261 -374.664ZM-38.003 -288.617L-33.5693 -258.945L-60.2738 -268.494L-38.003 -288.617ZM-77.6675 -252.84L-30.1247 -235.787L-23.7811 -193.292L-109.59 -224.055L-77.6675 -252.84ZM-126.95 -208.333L-20.3023 -170.101L-13.9587 -127.605L-158.872 -179.548L-126.95 -208.333ZM-176.266 -163.825L-10.48 -104.38L-4.13641 -61.8503L-208.189 -135.006L-176.266 -163.825ZM-257.505 -90.567L-225.582 -119.352L-0.691772 -38.7269L5.65182 3.76837L-257.505 -90.567ZM-19.6543 -305.158L31.1967 -286.945L67.5871 -43.1606L250.596 -208.299L301.447 -190.052L33.6182 51.584L-19.6543 -305.158ZM36.2784 76.9584L68.1669 48.1735L352.23 150.012L358.574 192.507L36.2784 76.9584ZM323.445 -182.174L374.262 -163.962L410.653 79.8232L593.662 -85.2807L644.513 -67.0684L376.718 174.568L323.445 -182.174ZM379.378 199.942L411.301 171.157L695.296 272.962L701.673 315.491L379.378 199.942ZM666.545 -59.1901L717.396 -40.9778L753.786 202.807L936.795 37.7031L987.646 55.9495L719.817 297.586L666.545 -59.1901ZM722.443 322.96L754.332 294.141L1038.36 395.979L1044.7 438.509L722.443 322.96ZM1009.61 63.8278L1060.43 82.0401L1096.85 325.825L1279.83 160.721L1330.68 178.933L1062.88 420.569L1009.61 63.8278ZM1065.54 445.944L1097.43 417.159L1381.49 518.997L1387.84 561.493L1065.54 445.944ZM1352.71 186.812L1403.56 205.058L1439.99 448.843L1622.99 283.739L1673.85 301.951L1406.05 543.587L1352.71 186.812Z" fill="#E3EEF5"/>
<path opacity="0.4" d="M138.053 344.689L80.0062 359.798L44.7413 311.232L13.6714 300.079L72.4008 381.045L169.158 355.841L138.053 344.689Z" fill="#E3EEF5"/>
<path opacity="0.4" d="M412.975 443.253L354.893 458.362L319.629 409.796L288.559 398.644L347.288 479.575L444.045 454.372L412.975 443.253Z" fill="#E3EEF5"/>
<path opacity="0.4" d="M962.786 640.345L904.705 655.487L869.474 606.887L838.37 595.769L897.099 676.701L993.856 651.497L962.786 640.345Z" fill="#E3EEF5"/>
<path opacity="0.4" d="M1512.6 837.479L1454.48 852.588L1419.25 804.022L1388.18 792.87L1446.88 873.802L1543.67 848.598L1512.6 837.479Z" fill="#E3EEF5"/>
<path opacity="0.4" d="M687.865 541.814L629.783 556.923L594.552 508.322L563.482 497.204L622.178 578.136L718.934 552.932L687.865 541.814Z" fill="#E3EEF5"/>
<path opacity="0.4" d="M1237.68 738.911L1179.59 754.019L1144.36 705.453L1113.29 694.301L1171.99 775.267L1268.75 750.063L1237.68 738.911Z" fill="#E3EEF5"/>
<path opacity="0.4" d="M1631.11 899.547L1611.88 873.047L1594.86 866.976L1434.36 908.789L1336.95 774.517L1319.97 768.412L1159.44 810.225L1062.07 675.952L1045.05 669.848L884.547 711.661L787.143 577.388L770.158 571.283L609.625 613.096L512.254 478.858L495.235 472.753L334.736 514.566L237.331 380.293L220.346 374.188L59.8467 416.002L-37.5581 281.729L-54.5767 275.624L-215.076 317.437L-312.481 183.164L-329.466 177.094L-381.783 190.702L-389.389 211.915L-326.498 195.545L-222.682 338.651L-51.6095 294.075L52.2412 437.215L223.348 392.639L327.13 535.745L498.237 491.204L602.019 634.31L773.125 589.768L876.942 732.874L1048.05 688.299L1151.87 831.438L1322.94 786.863L1426.75 929.969L1597.86 885.427L1623.51 920.76L1631.11 899.547Z" fill="#E3EEF5"/>
<path opacity="0.4" d="M1610.96 955.714L1588.31 924.508L1584.36 923.075L1580.4 921.677L1414.21 964.957L1313.39 825.943L1309.43 824.511L1305.48 823.113L1139.32 866.392L1038.5 727.413L1034.55 725.981L1030.59 724.548L864.394 767.828L763.578 628.849L759.656 627.416L755.666 626.018L589.505 669.298L488.689 530.284L484.733 528.852L480.743 527.454L314.582 570.733L213.766 431.72L209.844 430.287L205.854 428.889L39.6929 472.169L-61.1224 333.155L-65.0786 331.757L-69.0349 330.325L-235.196 373.604L-336.045 234.625L-339.968 233.193L-343.924 231.794L-401.903 246.869L-409.508 268.082L-346.618 251.712L-242.801 394.818L-71.7292 350.276L32.0874 493.382L203.194 448.841L306.976 591.947L478.083 547.371L581.899 690.477L753.006 645.935L856.788 789.041L1027.89 744.5L1131.71 887.606L1302.82 843.064L1406.6 986.17L1577.71 941.594L1603.35 976.962L1610.96 955.714Z" fill="#E3EEF5"/>
<path opacity="0.4" d="M1590.8 1011.92L1568.16 980.683L1564.2 979.251L1560.24 977.853L1394.08 1021.13L1293.27 882.153L1289.31 880.687L1285.32 879.288L1119.16 922.602L1018.34 783.589L1014.39 782.156L1010.43 780.758L844.27 824.038L743.455 685.024L739.499 683.592L735.542 682.194L569.347 725.473L468.532 586.46L464.576 585.028L460.619 583.629L294.458 626.909L193.643 487.93L189.687 486.463L185.73 485.065L19.5693 528.379L-81.2801 389.365L-85.2364 387.933L-89.1926 386.535L-255.354 429.814L-356.169 290.801L-360.125 289.369L-364.081 287.97L-422.061 303.079L-429.666 324.292L-366.776 307.922L-262.959 451.028L-91.8869 406.452L11.9639 549.592L183.036 505.016L286.853 648.122L457.959 603.581L561.742 746.687L732.848 702.145L836.665 845.251L1007.74 800.676L1111.55 943.816L1282.66 899.24L1386.48 1042.35L1557.58 997.804L1583.2 1033.14L1590.8 1011.92Z" fill="#E3EEF5"/>
<path opacity="0.4" d="M1570.68 1068.1L1548.03 1036.89L1544.08 1035.46L1540.09 1034.02L1373.93 1077.34L1273.11 938.325L1269.15 936.892L1265.2 935.494L1099.04 978.773L998.222 839.76L994.266 838.328L990.31 836.929L824.114 880.209L723.299 741.196L719.343 739.763L715.387 738.365L549.191 781.645L448.41 642.666L444.454 641.233L440.464 639.801L274.302 683.114L173.487 544.101L169.531 542.669L165.575 541.27L-0.586426 584.55L-101.436 445.537L-105.358 444.104L-109.314 442.706L-275.509 485.986L-376.325 346.972L-380.281 345.54L-384.237 344.142L-442.216 359.25L-449.822 380.464L-386.897 364.093L-283.115 507.199L-112.009 462.658L-8.19196 605.764L162.914 561.188L266.697 704.294L437.803 659.752L541.586 802.858L712.726 758.317L816.509 901.423L987.615 856.881L1091.43 999.987L1262.5 955.411L1366.32 1098.52L1537.43 1053.98L1563.07 1089.31L1570.68 1068.1Z" fill="#E3EEF5"/>
<path opacity="0.4" d="M1550.52 1124.3L1527.88 1093.06L1523.92 1091.63L1519.96 1090.23L1353.77 1133.51L1252.95 994.499L1249.03 993.067L1245.04 991.669L1078.88 1034.95L978.064 895.969L974.108 894.537L970.152 893.104L803.991 936.384L703.176 797.405L699.219 795.972L695.263 794.574L529.068 837.82L428.253 698.84L424.296 697.408L420.34 696.01L254.179 739.289L153.329 600.276L149.407 598.844L145.451 597.445L-20.71 640.725L-121.559 501.746L-125.516 500.313L-129.472 498.881L-295.633 542.161L-396.448 403.181L-400.405 401.749L-404.361 400.351L-462.34 415.425L-469.945 436.639L-407.055 420.268L-303.238 563.374L-132.166 518.833L-28.3154 661.938L142.757 617.397L246.573 760.503L417.646 715.927L521.462 859.033L692.569 814.492L796.385 957.597L967.458 913.056L1071.27 1056.16L1242.38 1011.62L1346.16 1154.73L1517.27 1110.15L1542.92 1145.52L1550.52 1124.3Z" fill="#E3EEF5"/>
<path opacity="0.4" d="M1530.4 1180.47L1507.76 1149.23L1503.8 1147.8L1499.81 1146.4L1333.65 1189.68L1232.83 1050.7L1228.88 1049.27L1224.92 1047.84L1058.76 1091.12L957.945 952.136L953.955 950.704L949.999 949.305L783.838 992.585L683.022 853.572L679.066 852.139L675.11 850.741L508.914 894.021L408.099 755.007L404.177 753.575L400.187 752.177L234.026 795.456L133.21 656.477L129.254 655.045L125.298 653.612L-40.8633 696.926L-141.713 557.913L-145.669 556.48L-149.625 555.082L-315.786 598.362L-416.602 459.348L-420.558 457.916L-424.514 456.518L-482.493 471.592L-490.099 492.806L-427.174 476.435L-323.392 619.575L-152.285 575L-48.4688 718.105L122.638 673.564L226.42 816.67L397.527 772.094L501.309 915.234L672.45 870.659L776.232 1013.8L947.339 969.223L1051.16 1112.33L1222.23 1067.79L1326.04 1210.89L1497.15 1166.35L1522.8 1201.68L1530.4 1180.47Z" fill="#E3EEF5"/>
<path opacity="0.4" d="M1510.25 1236.65L1487.6 1205.44L1483.64 1204.01L1479.69 1202.58L1313.49 1245.86L1212.68 1106.88L1208.75 1105.44L1204.76 1104.05L1038.6 1147.33L937.788 1008.31L933.831 1006.88L929.875 1005.48L763.714 1048.76L662.865 909.748L658.943 908.315L654.986 906.917L488.791 950.196L387.976 811.217L384.019 809.785L380.063 808.352L213.868 851.632L113.053 712.653L109.131 711.22L105.14 709.822L-61.0209 753.102L-161.836 614.089L-165.792 612.656L-169.749 611.258L-335.91 654.537L-436.759 515.524L-440.681 514.092L-444.638 512.693L-502.617 527.802L-510.222 549.016L-447.332 532.645L-343.515 675.751L-172.443 631.175L-68.6264 774.315L102.48 729.74L206.297 872.846L377.369 828.304L481.186 971.41L652.292 926.868L756.109 1069.97L927.181 1025.4L1031 1168.54L1202.1 1123.96L1305.89 1267.07L1476.99 1222.53L1502.64 1257.86L1510.25 1236.65Z" fill="#E3EEF5"/>
<path opacity="0.4" d="M1490.12 1292.82L1467.44 1261.61L1463.52 1260.18L1459.53 1258.78L1293.37 1302.06L1192.55 1163.05L1188.6 1161.61L1184.64 1160.22L1018.45 1203.5L917.665 1064.48L913.675 1063.05L909.718 1061.65L743.557 1104.93L642.742 965.952L638.786 964.519L634.83 963.121L468.634 1006.4L367.819 867.387L363.897 865.955L359.906 864.557L193.745 907.836L92.9301 768.823L88.9738 767.39L85.0176 765.992L-81.1436 809.272L-181.993 670.258L-185.949 668.826L-189.905 667.428L-356.067 710.707L-456.882 571.728L-460.838 570.296L-464.794 568.897L-522.773 583.972L-530.379 605.185L-467.489 588.815L-363.672 731.921L-192.6 687.379L-88.749 830.485L82.3233 785.944L186.14 929.05L357.246 884.474L461.029 1027.58L632.135 983.038L735.952 1126.14L907.024 1081.6L1010.84 1224.71L1181.95 1180.17L1285.76 1323.27L1456.87 1278.7L1482.52 1314.06L1490.12 1292.82Z" fill="#E3EEF5"/>
<path opacity="0.4" d="M1469.96 1349.02L1447.32 1317.81L1443.36 1316.35L1439.37 1314.95L1273.21 1358.23L1172.4 1219.25L1168.44 1217.78L1164.48 1216.42L998.322 1259.66L897.507 1120.69L893.551 1119.25L889.594 1117.85L723.399 1161.13L622.584 1022.12L618.662 1020.69L614.671 1019.29L448.476 1062.57L347.695 923.591L343.739 922.124L339.748 920.726L173.587 964.006L72.7719 825.026L68.8498 823.594L64.8594 822.196L-101.302 865.475L-202.151 726.462L-206.073 725.03L-210.029 723.631L-376.191 766.911L-477.04 627.898L-480.962 626.465L-484.952 625.067L-542.932 640.176L-550.503 661.355L-487.613 644.984L-399.314 766.74L-358.285 781.474L-212.724 743.549L-124.391 865.305L-83.3964 880.004L62.1992 842.113L150.532 963.869L191.527 978.569L337.088 940.678L425.421 1062.43L466.415 1077.13L612.011 1039.24L700.31 1160.96L741.339 1175.7L886.9 1137.77L975.233 1259.53L1016.23 1274.23L1161.82 1236.34L1250.12 1358.09L1291.15 1372.79L1436.71 1334.9L1462.36 1370.23L1469.96 1349.02Z" fill="#E3EEF5"/>
<path opacity="0.4" d="M-1.06343 909.536L42.0457 898.281L68.2045 934.364L99.2744 945.483L52.6184 881.194L48.6962 879.762L44.74 878.363L-32.1675 898.383L-1.06343 909.536Z" fill="#E3EEF5"/>
<path opacity="0.4" d="M1308.24 1800.1C1302.82 1799.66 1297.46 1799.01 1292.11 1798.09L1302.65 1736.94C1310.25 1738.24 1317.82 1738.82 1325.36 1738.75L1325.43 1752.15L1349.68 1684.52L1286.31 1714.6L1217.83 1568.97L1363.25 1500.01L1393.09 1563.48L1412.46 1509.49C1411.1 1508.26 1409.77 1506.97 1408.37 1505.77L1417.99 1494.08L1442.07 1426.96L-566.736 706.789L-574.785 729.264C-567.452 729.64 -560.188 730.424 -552.991 731.618L-563.393 792.803C-570.999 791.507 -578.604 790.927 -586.108 790.995L-586.312 761.392L-617.655 848.838L-546.75 815.21L-478.301 960.84L-623.692 1029.8L-657.081 958.759L-677.612 1016.06C-674.884 1018.75 -671.985 1021.38 -669.018 1023.83L-689.14 1048.18L-708 1100.84L1300.8 1821.01L1308.24 1800.1ZM1211.52 1673.88L1158.21 1705.19C1152.55 1695.5 1147.74 1685.31 1143.85 1674.77L1201.69 1653.14C1204.39 1660.31 1207.66 1667.26 1211.52 1673.88ZM1195.69 1631.04L1134.95 1642.33C1132.94 1631.32 1131.81 1620.1 1131.71 1608.77L1193.51 1608.3C1193.58 1615.97 1194.33 1623.57 1195.69 1631.04ZM-269.576 946.072C-276.158 949.926 -282.4 954.394 -288.232 959.373L-328.203 912.274C-319.609 904.941 -310.434 898.393 -300.748 892.731L-269.576 946.072ZM-270.429 878.237C-259.924 874.314 -249.079 871.279 -238.029 869.199L-226.842 930.077C-234.379 931.475 -241.78 933.521 -248.874 936.216L-270.429 878.237ZM-317.255 994.57L-371.005 964.08C-365.378 954.155 -359 944.844 -351.906 936.284L-304.329 975.71C-309.138 981.508 -313.436 987.851 -317.255 994.57ZM-332.603 1037.64L-393.515 1027.31C-391.639 1016.33 -388.842 1005.42 -384.988 994.57L-326.702 1015.17C-329.397 1022.6 -331.307 1030.11 -332.603 1037.64ZM-361.149 923.017L-376.667 917.458C-377.11 897.711 -380.35 878.305 -386.114 859.751L-317.187 884.478C-333.455 895.119 -348.257 908.079 -361.149 923.017ZM-410.602 1036.55C-411.011 1040.24 -411.318 1043.89 -411.522 1047.54L-416.843 1045.63C-414.728 1042.69 -412.648 1039.66 -410.602 1036.55ZM-376.974 934.306L-371.653 936.216C-373.802 939.183 -375.882 942.218 -377.895 945.322C-377.485 941.638 -377.178 937.989 -376.974 934.306ZM-403.474 987.135L-461.589 966.058C-458.997 958.725 -457.121 951.358 -455.859 943.958L-394.947 954.155C-396.789 965.205 -399.586 976.221 -403.474 987.135ZM-471.411 987.578L-417.73 1018.17C-423.357 1028.1 -429.769 1037.37 -436.897 1045.97L-484.371 1006.44C-479.563 1000.61 -475.231 994.297 -471.411 987.578ZM-427.381 1058.86L-411.863 1064.42C-411.42 1084.16 -408.18 1103.57 -402.382 1122.12L-471.309 1097.4C-455.075 1086.79 -440.239 1073.83 -427.381 1058.86ZM-393.071 1094.5C-395.084 1083.48 -396.209 1072.26 -396.311 1060.94L-334.513 1060.46C-334.479 1068.14 -333.694 1075.77 -332.364 1083.21L-393.071 1094.5ZM-326.327 1105.34C-323.633 1112.51 -320.393 1119.46 -316.505 1126.08L-369.812 1157.39C-375.473 1147.7 -380.248 1137.51 -384.17 1126.97L-326.327 1105.34ZM-310.196 1021.1L-164.77 952.143L-96.2869 1097.77L-241.712 1166.73L-310.196 1021.1ZM112.404 1083.04C105.855 1086.93 99.6141 1091.36 93.7479 1096.34L53.8106 1049.24C62.4052 1041.91 71.5795 1035.36 81.2313 1029.7L112.404 1083.04ZM111.585 1015.2C122.089 1011.28 132.901 1008.25 143.985 1006.17L155.172 1067.04C147.634 1068.44 140.268 1070.49 133.14 1073.18L111.585 1015.2ZM64.7584 1131.5L11.0425 1101.01C16.6358 1091.09 23.0476 1081.78 30.1415 1073.18L77.7184 1112.61C72.9096 1118.47 68.5782 1124.78 64.7584 1131.5ZM49.411 1174.61L-11.467 1164.28C-9.62531 1153.3 -6.82867 1142.35 -2.97479 1131.54L55.3113 1152.14C52.6169 1159.57 50.707 1167.07 49.411 1174.61ZM20.8649 1059.98L5.34692 1054.42C4.90356 1034.68 1.66357 1015.27 -4.10022 996.718L64.8607 1021.44C48.5583 1032.09 33.7567 1045.01 20.8649 1059.98ZM4.01685 1082.43C4.42609 1078.71 4.83533 1074.99 5.0741 1071.27L10.3945 1073.18C8.17773 1076.22 6.06317 1079.29 4.01685 1082.43ZM-29.5428 1184.5L-34.8632 1182.59C-32.6805 1179.59 -30.6342 1176.45 -28.5878 1173.32C-28.9971 1177.07 -29.3382 1180.78 -29.5428 1184.5ZM-79.5412 1102.99C-76.9492 1095.69 -75.0734 1088.29 -73.8456 1080.89L-12.8994 1091.09C-14.7752 1102.14 -17.5718 1113.15 -21.4257 1124.07L-79.5412 1102.99ZM-35.7159 1155.14C-41.3433 1165.03 -47.755 1174.34 -54.8831 1182.93L-102.358 1143.41C-97.5488 1137.57 -93.2175 1131.3 -89.3976 1124.58L-35.7159 1155.14ZM-13.4792 1023.93C-11.467 1034.92 -10.2733 1046.17 -10.2051 1057.49L-72.0039 1058.11C-72.0721 1050.43 -72.8566 1042.83 -74.2208 1035.36L-13.4792 1023.93ZM-80.3256 1013.26C-82.9858 1006.06 -86.2599 999.14 -90.1138 992.558L-36.8754 961.113C-31.2139 970.798 -26.4051 980.996 -22.483 991.5L-80.3256 1013.26ZM-157.881 1182.76L-136.497 1240.78C-147.002 1244.7 -157.847 1247.67 -168.897 1249.71L-179.947 1188.83C-172.41 1187.44 -165.009 1185.39 -157.881 1182.76ZM-137.179 1172.91C-130.563 1169.05 -124.356 1164.58 -118.49 1159.64L-78.6204 1206.84C-87.249 1214.14 -96.4233 1220.65 -106.075 1226.32L-137.179 1172.91ZM-45.3677 1195.83L-29.8497 1201.38C-29.4064 1221.13 -26.1664 1240.54 -20.3685 1259.09L-89.3294 1234.36C-73.0612 1223.72 -58.2254 1210.76 -45.3677 1195.83ZM-11.0577 1231.47C-13.0699 1220.45 -14.1954 1209.23 -14.2977 1197.91L47.5011 1197.43C47.5352 1205.1 48.2855 1212.71 49.6838 1220.18L-11.0577 1231.47ZM55.7205 1242.28C58.3466 1249.44 61.6548 1256.4 65.4746 1263.01L12.168 1294.32C6.54065 1284.64 1.73181 1274.44 -2.19031 1263.9L55.7205 1242.28ZM71.8182 1158.04L217.243 1089.08L285.727 1234.71L140.336 1303.67L71.8182 1158.04ZM494.417 1219.97C487.869 1223.86 481.628 1228.29 475.796 1233.27L435.858 1186.17C444.453 1178.84 453.593 1172.29 463.279 1166.63L494.417 1219.97ZM493.599 1152.14C504.103 1148.21 514.915 1145.18 525.999 1143.1L537.185 1203.98C529.648 1205.37 522.247 1207.42 515.119 1210.12L493.599 1152.14ZM446.772 1268.47L393.056 1237.98C398.684 1228.05 405.061 1218.74 412.155 1210.15L459.732 1249.58C454.889 1255.41 450.558 1261.75 446.772 1268.47ZM431.425 1311.54L370.513 1301.21C372.388 1290.23 375.151 1279.28 379.005 1268.47L437.257 1289.07C434.631 1296.54 432.721 1304.04 431.425 1311.54ZM402.844 1196.95L387.327 1191.39C386.883 1171.64 383.677 1152.24 377.879 1133.69L446.84 1158.41C430.572 1169.02 415.77 1181.98 402.844 1196.95ZM386.099 1219.22C386.508 1215.57 386.849 1211.89 387.054 1208.21L392.374 1210.12C390.225 1213.12 388.145 1216.15 386.099 1219.22ZM352.471 1321.47L347.151 1319.56C349.299 1316.59 351.414 1313.56 353.426 1310.45C353.017 1314.14 352.676 1317.79 352.471 1321.47ZM302.473 1239.96C305.03 1232.63 306.906 1225.26 308.168 1217.86L369.114 1228.05C367.273 1239.1 364.442 1250.12 360.588 1261.03L302.473 1239.96ZM346.298 1292.07C340.671 1302 334.259 1311.27 327.131 1319.87L279.656 1280.34C284.499 1274.51 288.796 1268.23 292.616 1261.51L346.298 1292.07ZM368.5 1160.87C370.547 1171.88 371.706 1183.1 371.775 1194.43L310.01 1195.04C309.942 1187.37 309.191 1179.76 307.793 1172.29L368.5 1160.87ZM301.722 1150.19C299.062 1143.03 295.754 1136.07 291.9 1129.49L345.138 1098.05C350.834 1107.73 355.609 1117.93 359.531 1128.43L301.722 1150.19ZM224.133 1319.73L245.517 1377.71C235.012 1381.63 224.201 1384.63 213.117 1386.68L202.066 1325.77C209.604 1324.4 217.005 1322.36 224.133 1319.73ZM244.835 1309.87C251.417 1306.02 257.658 1301.55 263.524 1296.61L303.359 1343.81C294.765 1351.11 285.59 1357.62 275.904 1363.28L244.835 1309.87ZM336.646 1332.79L352.164 1338.35C352.607 1358.1 355.847 1377.5 361.611 1396.06L292.65 1371.33C308.953 1360.69 323.754 1347.73 336.646 1332.79ZM370.922 1368.4C368.91 1357.38 367.784 1346.16 367.716 1334.84L429.515 1334.36C429.549 1342.03 430.333 1349.67 431.698 1357.11L370.922 1368.4ZM437.7 1379.24C440.36 1386.41 443.634 1393.36 447.488 1399.98L394.182 1431.29C388.52 1421.6 383.745 1411.41 379.823 1400.87L437.7 1379.24ZM453.832 1295L599.257 1226.04L667.706 1371.67L522.315 1440.63L453.832 1295ZM876.431 1356.94C869.883 1360.83 863.641 1365.26 857.81 1370.24L817.872 1323.14C826.467 1315.81 835.607 1309.26 845.293 1303.56L876.431 1356.94ZM875.613 1289.1C886.117 1285.18 896.963 1282.15 908.013 1280.07L919.199 1340.94C911.662 1342.34 904.295 1344.39 897.133 1347.08L875.613 1289.1ZM828.786 1405.44L775.07 1374.95C780.663 1365.02 787.075 1355.71 794.169 1347.12L841.746 1386.54C836.903 1392.37 832.572 1398.68 828.786 1405.44ZM813.438 1448.51L752.561 1438.18C754.436 1427.2 757.199 1416.25 761.053 1405.44L819.305 1426C816.61 1433.47 814.734 1440.97 813.438 1448.51ZM784.858 1333.88L769.34 1328.32C768.897 1308.58 765.657 1289.17 759.893 1270.62L828.854 1295.34C812.586 1305.99 797.75 1318.91 784.858 1333.88ZM768.147 1356.19C768.556 1352.54 768.863 1348.86 769.068 1345.21L774.388 1347.12C772.239 1350.05 770.125 1353.09 768.147 1356.19ZM734.485 1458.4L729.164 1456.49C731.313 1453.53 733.393 1450.49 735.44 1447.42C734.996 1451.1 734.689 1454.75 734.485 1458.4ZM684.452 1376.92C687.044 1369.63 688.886 1362.23 690.148 1354.82L751.094 1365.02C749.252 1376.07 746.422 1387.09 742.568 1398L684.452 1376.92ZM728.312 1429.04C722.65 1438.93 716.272 1448.24 709.144 1456.83L661.636 1417.31C666.445 1411.47 670.776 1405.2 674.596 1398.48L728.312 1429.04ZM750.514 1297.83C752.561 1308.85 753.686 1320.04 753.788 1331.39L691.99 1332.01C691.921 1324.3 691.171 1316.73 689.773 1309.23L750.514 1297.83ZM683.702 1287.16C681.042 1280 677.733 1273.04 673.88 1266.46L727.118 1235.01C732.779 1244.7 737.588 1254.9 741.51 1265.4L683.702 1287.16ZM606.146 1456.66L627.564 1514.68C617.06 1518.6 606.215 1521.57 595.13 1523.61L584.114 1462.73C591.617 1461.34 598.984 1459.32 606.146 1456.66ZM626.882 1446.81C633.465 1442.95 639.672 1438.52 645.572 1433.54L685.407 1480.74C676.813 1488.04 667.604 1494.55 657.952 1500.22L626.882 1446.81ZM718.66 1469.73L734.178 1475.28C734.621 1495.03 737.861 1514.44 743.659 1532.99L674.698 1508.26C690.966 1497.62 705.768 1484.7 718.66 1469.73ZM752.936 1505.37C750.923 1494.35 749.798 1483.13 749.696 1471.81L811.495 1471.33C811.529 1479.04 812.313 1486.64 813.677 1494.08L752.936 1505.37ZM819.714 1516.21C822.374 1523.37 825.648 1530.33 829.502 1536.95L776.196 1568.26C770.534 1558.57 765.759 1548.37 761.871 1537.83L819.714 1516.21ZM835.846 1431.94L981.271 1362.98L1049.72 1508.61L904.329 1577.57L835.846 1431.94ZM1210.77 1542.37L1157.05 1511.88C1162.64 1501.95 1169.05 1492.64 1176.15 1484.05L1223.73 1523.48C1218.92 1529.34 1214.59 1535.65 1210.77 1542.37ZM1195.45 1585.48L1134.54 1575.14C1136.42 1564.16 1139.18 1553.22 1143.07 1542.4L1201.32 1562.97C1198.62 1570.44 1196.71 1577.94 1195.45 1585.48ZM1166.87 1470.85L1151.35 1465.29C1150.91 1445.54 1147.67 1426.1 1141.87 1407.59L1210.83 1432.31C1194.6 1442.92 1179.76 1455.88 1166.87 1470.85ZM1150.13 1493.16C1150.54 1489.51 1150.88 1485.82 1151.08 1482.14L1156.4 1484.05C1154.22 1487.02 1152.14 1490.05 1150.13 1493.16ZM1116.5 1595.37L1111.18 1593.46C1113.36 1590.49 1115.44 1587.46 1117.45 1584.35C1117.01 1588.04 1116.7 1591.69 1116.5 1595.37ZM1066.5 1513.86C1069.06 1506.52 1070.93 1499.16 1072.2 1491.76L1133.14 1501.95C1131.3 1513 1128.47 1524.02 1124.62 1534.93L1066.5 1513.86ZM1110.33 1566C1104.66 1575.9 1098.29 1585.21 1091.16 1593.8L1043.68 1554.27C1048.53 1548.44 1052.82 1542.17 1056.64 1535.45L1110.33 1566ZM1132.53 1434.77C1134.57 1445.78 1135.73 1457 1135.84 1468.33L1074 1468.94C1073.97 1461.27 1073.18 1453.66 1071.82 1446.19L1132.53 1434.77ZM1065.72 1424.09C1063.06 1416.93 1059.78 1409.97 1055.89 1403.39L1109.13 1371.95C1114.83 1381.67 1119.6 1391.83 1123.56 1402.37L1065.72 1424.09ZM988.16 1593.63L1009.58 1651.64C999.074 1655.57 988.228 1658.53 977.144 1660.58L966.128 1599.7C973.631 1598.3 981.032 1596.26 988.16 1593.63ZM1008.86 1583.77C1015.44 1579.92 1021.69 1575.49 1027.55 1570.51L1067.39 1617.71C1058.76 1625.01 1049.58 1631.52 1039.93 1637.18L1008.86 1583.77ZM1100.67 1606.69L1116.19 1612.25C1116.63 1632 1119.87 1651.4 1125.67 1669.96L1056.71 1645.23C1072.98 1634.59 1087.78 1621.66 1100.67 1606.69ZM1239.79 1507.21L1199.82 1460.11C1208.41 1452.77 1217.59 1446.23 1227.24 1440.57L1258.41 1493.91C1251.86 1497.76 1245.66 1502.23 1239.79 1507.21ZM1279.15 1484.02L1257.63 1426.07C1268.1 1422.11 1278.94 1419.11 1290.03 1417.03L1301.21 1477.91C1293.64 1479.27 1286.27 1481.32 1279.15 1484.02ZM1390.13 1424.94C1400.53 1428.7 1410.52 1433.3 1420.07 1438.69L1389.58 1492.71C1383.17 1489.06 1376.38 1485.89 1369.18 1483.33C1369.05 1483.3 1368.91 1483.27 1368.78 1483.2L1389.51 1424.74C1389.72 1424.84 1389.92 1424.88 1390.13 1424.94ZM1357.01 1416.38L1346.64 1477.5C1339.04 1476.24 1331.43 1475.63 1323.89 1475.66L1323.48 1413.69C1334.6 1413.55 1345.82 1414.47 1357.01 1416.38ZM1314.82 1398.27C1284.64 1399.84 1255.31 1407.96 1228.84 1421.77L1134.68 1388.01C1123.01 1360.55 1105.55 1335.66 1083.21 1315.26L1314.82 1398.27ZM1065.78 1320.86C1074.51 1328.09 1082.5 1336 1089.69 1344.56L1042.66 1384.73C1037.72 1378.97 1032.33 1373.58 1026.39 1368.67L1065.78 1320.86ZM1008.11 1288.01C1018.65 1291.8 1028.61 1296.44 1038.06 1301.79L1007.6 1355.78C1001.15 1352.13 994.367 1348.99 987.205 1346.4C987.069 1346.37 986.932 1346.33 986.796 1346.26L1007.53 1287.81C1007.74 1287.88 1007.94 1287.94 1008.11 1288.01ZM975.03 1279.42L964.627 1340.5C957.022 1339.24 949.451 1338.62 941.879 1338.66L941.47 1276.72C952.588 1276.62 963.809 1277.54 975.03 1279.42ZM932.841 1261.34C902.624 1262.91 873.328 1271.03 846.862 1284.84L752.697 1251.08C741.033 1223.62 723.571 1198.69 701.232 1178.3L932.841 1261.34ZM683.77 1183.89C692.501 1191.12 700.448 1199.03 707.678 1207.59L660.647 1247.8C655.735 1242.04 650.313 1236.65 644.412 1231.74L683.77 1183.89ZM626.132 1151.05C636.636 1154.83 646.595 1159.47 656.042 1164.82L625.586 1218.81C619.141 1215.16 612.354 1212.03 605.191 1209.43C605.055 1209.4 604.919 1209.33 604.782 1209.3L625.484 1150.84C625.723 1150.94 625.927 1150.98 626.132 1151.05ZM593.016 1142.45L582.614 1203.57C575.008 1202.31 567.403 1201.69 559.9 1201.73L559.49 1139.79C570.575 1139.65 581.795 1140.57 593.016 1142.45ZM550.793 1124.37C520.61 1125.94 491.28 1134.06 464.848 1147.87L370.649 1114.11C358.985 1086.65 341.523 1061.76 319.184 1041.36L550.793 1124.37ZM301.756 1046.96C310.453 1054.19 318.434 1062.1 325.664 1070.62L278.633 1110.83C273.722 1105.07 268.299 1099.68 262.365 1094.77L301.756 1046.96ZM244.084 1014.11C254.623 1017.9 264.582 1022.54 274.029 1027.89L243.573 1081.88C237.161 1078.26 230.34 1075.09 223.144 1072.5C223.007 1072.47 222.905 1072.43 222.768 1072.36L243.47 1013.91C243.709 1013.98 243.914 1014.04 244.084 1014.11ZM211.002 1005.52L200.6 1066.6C192.995 1065.34 185.423 1064.72 177.886 1064.76L177.477 1002.82C188.561 1002.72 199.781 1003.64 211.002 1005.52ZM168.814 987.408C138.631 988.977 109.3 997.094 82.8342 1010.91L-11.3306 977.142C-22.9946 949.687 -40.4565 924.756 -62.7955 904.361L168.814 987.408ZM-80.2574 909.989C-71.5605 917.219 -63.5799 925.131 -56.3496 933.692L-103.415 973.902C-108.326 968.104 -113.749 962.715 -119.649 957.838L-80.2574 909.989ZM-137.895 877.145C-127.357 880.931 -117.398 885.569 -107.951 890.924L-138.407 944.912C-144.853 941.263 -151.64 938.126 -158.802 935.534C-158.938 935.499 -159.075 935.465 -159.211 935.397L-138.509 876.941C-138.305 877.043 -138.1 877.077 -137.895 877.145ZM-171.012 868.551L-181.38 929.667C-188.985 928.406 -196.591 927.757 -204.128 927.826L-204.537 865.856C-193.419 865.754 -182.232 866.675 -171.012 868.551ZM-213.2 850.475C-243.383 852.044 -272.714 860.195 -299.179 873.973L-393.344 840.209C-405.008 812.754 -422.47 787.857 -444.809 767.462L-213.2 850.475ZM-520.421 807.945C-526.867 804.296 -533.654 801.159 -540.816 798.567C-540.986 798.498 -541.089 798.464 -541.225 798.43L-520.523 739.974C-520.318 740.042 -520.114 740.11 -519.909 740.178C-509.371 743.964 -499.412 748.602 -489.999 753.957L-520.421 807.945ZM-501.629 820.871L-462.271 773.022C-453.574 780.252 -445.594 788.198 -438.363 796.725L-485.429 836.901C-490.306 831.137 -495.728 825.748 -501.629 820.871ZM-472.128 855.591L-418.889 824.146C-413.228 833.831 -408.419 844.029 -404.497 854.533L-462.305 876.293C-464.965 869.096 -468.274 862.173 -472.128 855.591ZM-456.2 898.393L-395.493 886.968C-393.447 897.949 -392.321 909.17 -392.219 920.527L-454.018 921.141C-454.086 913.467 -454.836 905.862 -456.2 898.393ZM-500.503 1022.67L-460.668 1069.87C-469.263 1077.17 -478.471 1083.69 -488.123 1089.35L-519.193 1035.94C-512.611 1032.12 -506.335 1027.65 -500.503 1022.67ZM-539.895 1045.83L-518.511 1103.81C-529.015 1107.73 -539.861 1110.7 -550.911 1112.78L-561.961 1051.87C-554.39 1050.47 -547.023 1048.46 -539.895 1045.83ZM-650.601 1104.73C-661.173 1100.94 -671.303 1096.31 -680.92 1090.78L-650.294 1036.79C-643.78 1040.51 -636.925 1043.75 -629.66 1046.34L-629.524 1046.38L-650.396 1104.76L-650.601 1104.73ZM-617.894 1113.26L-607.389 1052.17C-599.818 1053.47 -592.178 1054.12 -584.675 1054.05L-584.368 1116.02C-595.487 1116.12 -606.707 1115.17 -617.894 1113.26ZM-575.296 1131.43C-545.113 1129.87 -515.782 1121.71 -489.351 1107.94L-395.186 1141.7C-383.522 1169.15 -366.06 1194.09 -343.721 1214.48L-575.296 1131.43ZM-326.566 1208.61C-335.263 1201.38 -343.209 1193.4 -350.406 1184.84L-303.306 1144.74C-298.395 1150.53 -293.006 1155.92 -287.106 1160.83L-326.566 1208.61ZM-268.587 1241.7C-279.262 1237.88 -289.357 1233.17 -298.873 1227.71L-268.314 1173.79C-261.834 1177.48 -254.945 1180.72 -247.68 1183.31L-247.544 1183.38L-268.417 1241.77L-268.587 1241.7ZM-235.914 1250.22L-225.41 1189.14C-217.804 1190.44 -210.199 1191.08 -202.696 1191.02L-202.389 1252.99C-213.473 1253.09 -224.694 1252.13 -235.914 1250.22ZM-193.282 1268.37C-163.099 1266.8 -133.769 1258.68 -107.303 1244.87L-13.1381 1278.63C-1.47412 1306.09 15.9878 1331.02 38.3268 1351.38L-193.282 1268.37ZM55.4477 1345.58C46.7508 1338.35 38.8043 1330.37 31.608 1321.81L78.7075 1281.7C83.6187 1287.5 89.0073 1292.89 94.9075 1297.8L55.4477 1345.58ZM113.393 1378.63C102.752 1374.81 92.6566 1370.1 83.1071 1364.65L113.7 1310.73C120.18 1314.41 127.069 1317.62 134.333 1320.24L134.47 1320.31L113.597 1378.7L113.393 1378.63ZM146.134 1387.16L156.638 1326.07C164.244 1327.37 171.849 1328.02 179.352 1327.95L179.659 1389.92C168.541 1390.02 157.32 1389.07 146.134 1387.16ZM188.731 1405.33C218.914 1403.77 248.245 1395.61 274.711 1381.84L368.876 1415.6C380.54 1443.05 398.002 1467.99 420.341 1488.35L188.731 1405.33ZM437.427 1482.51C428.73 1475.28 420.784 1467.27 413.588 1458.74L460.721 1418.67C465.598 1424.47 471.021 1429.86 476.921 1434.77L437.427 1482.51ZM495.44 1515.6C484.766 1511.78 474.67 1507.07 465.121 1501.61L495.679 1447.69C502.193 1451.38 509.048 1454.62 516.347 1457.21L516.484 1457.24L495.611 1515.63L495.44 1515.6ZM528.113 1524.12L538.652 1463.04C546.257 1464.34 553.829 1464.98 561.366 1464.92L561.673 1526.89C550.555 1526.99 539.334 1526.03 528.113 1524.12ZM570.711 1542.3C600.928 1540.73 630.225 1532.62 656.691 1518.8L750.855 1552.57C762.519 1580.02 779.981 1604.95 802.32 1625.35L570.711 1542.3ZM819.441 1619.48C810.744 1612.25 802.798 1604.27 795.601 1595.71L842.735 1555.64C847.646 1561.43 853.035 1566.82 858.935 1571.73L819.441 1619.48ZM877.454 1652.56C866.779 1648.74 856.684 1644 847.169 1638.58L877.727 1584.66C884.241 1588.34 891.096 1591.58 898.395 1594.18L898.531 1594.24L877.659 1652.63L877.454 1652.56ZM910.127 1661.09L920.631 1600.01C928.203 1601.3 935.808 1601.95 943.346 1601.88L943.653 1663.85C932.568 1663.92 921.348 1663 910.127 1661.09ZM952.759 1679.27C982.942 1677.7 1012.27 1669.55 1038.74 1655.77L1132.9 1689.53C1144.57 1716.99 1162.06 1741.92 1184.37 1762.31L952.759 1679.27ZM1201.45 1756.41C1192.76 1749.18 1184.81 1741.17 1177.62 1732.64L1224.75 1692.57C1229.63 1698.37 1235.05 1703.76 1240.95 1708.67L1201.45 1756.41ZM1259.43 1789.5C1248.76 1785.68 1238.66 1780.97 1229.15 1775.51L1259.71 1721.59C1266.22 1725.28 1273.08 1728.52 1280.34 1731.11L1280.48 1731.18L1259.6 1789.56L1259.43 1789.5Z" fill="#E3EEF5"/>
</g>
</g>
<defs>
<linearGradient id="paint0_linear" x1="-708.426" y1="269.245" x2="7.40976" y2="269.245" gradientUnits="userSpaceOnUse">
<stop stop-color="var(--background-image-color)"/>
<stop offset="1" stop-color="var(--background-image-color)" stop-opacity="0"/>
</linearGradient>
<clipPath id="clip0">
<rect width="1752" height="1243" fill="white" transform="translate(-156 -168)"/>
</clipPath>
</defs>
</svg>
