<svg width="146" height="43" viewBox="0 0 146 43" fill="none" xmlns="http://www.w3.org/2000/svg">
<path d="M61.8833 12.7226C62.4169 12.7226 62.8453 12.9005 63.1687 13.2562C63.5083 13.5958 63.6781 14.0404 63.6781 14.5902V28.197C63.6781 28.763 63.5083 29.2238 63.1687 29.5795C62.8453 29.9191 62.4169 30.0889 61.8833 30.0889C61.3011 30.0889 60.8322 29.8787 60.4765 29.4583L52.3512 19.0531V28.197C52.3512 28.763 52.1895 29.2238 51.8661 29.5795C51.5589 29.9191 51.1385 30.0889 50.6049 30.0889C50.0713 30.0889 49.6428 29.9191 49.3194 29.5795C48.996 29.2238 48.8343 28.763 48.8343 28.197V14.5902C48.8343 14.0404 48.996 13.5958 49.3194 13.2562C49.6589 12.9005 50.0955 12.7226 50.6291 12.7226C51.2274 12.7226 51.6882 12.9328 52.0116 13.3532L60.1369 23.6857V14.5902C60.1369 14.0404 60.2986 13.5958 60.622 13.2562C60.9454 12.9005 61.3658 12.7226 61.8833 12.7226ZM73.3545 17.7433C75.1009 17.7433 76.3944 18.1718 77.2353 19.0288C78.0761 19.8696 78.4965 21.1632 78.4965 22.9095V28.3911C78.4965 28.9247 78.3429 29.3451 78.0357 29.6523C77.7284 29.9434 77.2999 30.0889 76.7502 30.0889C76.2327 30.0889 75.8123 29.9353 75.4889 29.6281C75.1817 29.3047 75.0281 28.8923 75.0281 28.3911V28.2213C74.7855 28.8196 74.3813 29.2885 73.8154 29.6281C73.2494 29.9676 72.5865 30.1374 71.8265 30.1374C71.018 30.1374 70.2823 29.9757 69.6193 29.6523C68.9725 29.3289 68.4551 28.8762 68.067 28.294C67.6951 27.7119 67.5092 27.0652 67.5092 26.3537C67.5092 25.4805 67.7275 24.7933 68.164 24.292C68.6168 23.7908 69.3364 23.427 70.3227 23.2006C71.3091 22.9742 72.6592 22.861 74.3732 22.861H75.0038V22.4244C75.0038 21.7453 74.8502 21.2521 74.543 20.9449C74.2519 20.6377 73.7588 20.4841 73.0635 20.4841C72.3682 20.4841 71.3656 20.7266 70.0559 21.2117C69.684 21.3896 69.3687 21.4785 69.11 21.4785C68.7542 21.4785 68.4713 21.3572 68.2611 21.1147C68.0509 20.856 67.9458 20.5245 67.9458 20.1203C67.9458 19.7969 68.0185 19.5301 68.164 19.3199C68.3096 19.1097 68.544 18.9156 68.8674 18.7377C69.4334 18.4305 70.1206 18.188 70.9291 18.0101C71.7537 17.8322 72.5622 17.7433 73.3545 17.7433ZM72.6269 27.6149C73.3384 27.6149 73.9124 27.3805 74.349 26.9115C74.7855 26.4264 75.0038 25.8039 75.0038 25.0439V24.6316H74.5915C73.2818 24.6316 72.3601 24.7367 71.8265 24.9469C71.3091 25.1571 71.0503 25.5371 71.0503 26.0869C71.0503 26.5396 71.1959 26.9115 71.4869 27.2026C71.7941 27.4775 72.1741 27.6149 72.6269 27.6149ZM84.2909 30.0889C83.7573 30.0889 83.3126 29.9434 82.9569 29.6523C82.6173 29.3612 82.4475 28.9328 82.4475 28.3668V19.5139C82.4475 18.948 82.6254 18.5195 82.9811 18.2284C83.3369 17.9373 83.7734 17.7918 84.2909 17.7918C84.8083 17.7918 85.2368 17.9373 85.5764 18.2284C85.9321 18.5195 86.11 18.948 86.11 19.5139V28.3668C86.11 28.9328 85.9321 29.3612 85.5764 29.6523C85.2368 29.9434 84.8083 30.0889 84.2909 30.0889ZM84.2909 15.8515C83.6441 15.8515 83.1347 15.6898 82.7628 15.3664C82.3909 15.0268 82.205 14.574 82.205 14.0081C82.205 13.4422 82.3909 12.9975 82.7628 12.6741C83.1347 12.3507 83.6441 12.189 84.2909 12.189C84.9215 12.189 85.4227 12.3588 85.7947 12.6984C86.1827 13.0218 86.3768 13.4583 86.3768 14.0081C86.3768 14.574 86.1908 15.0268 85.8189 15.3664C85.447 15.6898 84.9377 15.8515 84.2909 15.8515ZM97.2331 17.7918C97.7182 17.7595 98.0982 17.8727 98.3731 18.1314C98.6642 18.3739 98.8097 18.7458 98.8097 19.2471C98.8097 19.7807 98.6803 20.1769 98.4216 20.4356C98.1629 20.6943 97.7021 20.856 97.0391 20.9207L96.3115 20.9934C95.4221 21.0904 94.7753 21.3815 94.3711 21.8666C93.983 22.3517 93.789 22.9742 93.789 23.7342V28.3668C93.789 28.9328 93.6111 29.3612 93.2554 29.6523C92.9158 29.9434 92.4873 30.0889 91.9699 30.0889C91.4363 30.0889 90.9916 29.9434 90.6359 29.6523C90.2963 29.3612 90.1266 28.9328 90.1266 28.3668V19.4654C90.1266 18.9318 90.3044 18.5195 90.6602 18.2284C91.0159 17.9373 91.4444 17.7918 91.9456 17.7918C92.4307 17.7918 92.835 17.9373 93.1584 18.2284C93.4818 18.5033 93.6435 18.8914 93.6435 19.3926V20.0475C93.9345 19.3522 94.3711 18.8186 94.9532 18.4467C95.5515 18.0748 96.1983 17.8646 96.8936 17.8161L97.2331 17.7918ZM106.435 17.7433C108.181 17.7433 109.474 18.1718 110.315 19.0288C111.156 19.8696 111.576 21.1632 111.576 22.9095V28.3911C111.576 28.9247 111.423 29.3451 111.116 29.6523C110.808 29.9434 110.38 30.0889 109.83 30.0889C109.313 30.0889 108.892 29.9353 108.569 29.6281C108.262 29.3047 108.108 28.8923 108.108 28.3911V28.2213C107.866 28.8196 107.461 29.2885 106.895 29.6281C106.329 29.9676 105.666 30.1374 104.906 30.1374C104.098 30.1374 103.362 29.9757 102.699 29.6523C102.053 29.3289 101.535 28.8762 101.147 28.294C100.775 27.7119 100.589 27.0652 100.589 26.3537C100.589 25.4805 100.807 24.7933 101.244 24.292C101.697 23.7908 102.416 23.427 103.403 23.2006C104.389 22.9742 105.739 22.861 107.453 22.861H108.084V22.4244C108.084 21.7453 107.93 21.2521 107.623 20.9449C107.332 20.6377 106.839 20.4841 106.143 20.4841C105.448 20.4841 104.446 20.7266 103.136 21.2117C102.764 21.3896 102.449 21.4785 102.19 21.4785C101.834 21.4785 101.551 21.3572 101.341 21.1147C101.131 20.856 101.026 20.5245 101.026 20.1203C101.026 19.7969 101.099 19.5301 101.244 19.3199C101.39 19.1097 101.624 18.9156 101.947 18.7377C102.513 18.4305 103.201 18.188 104.009 18.0101C104.834 17.8322 105.642 17.7433 106.435 17.7433ZM105.707 27.6149C106.418 27.6149 106.992 27.3805 107.429 26.9115C107.866 26.4264 108.084 25.8039 108.084 25.0439V24.6316H107.672C106.362 24.6316 105.44 24.7367 104.906 24.9469C104.389 25.1571 104.13 25.5371 104.13 26.0869C104.13 26.5396 104.276 26.9115 104.567 27.2026C104.874 27.4775 105.254 27.6149 105.707 27.6149ZM117.589 29.9434C117.023 29.9434 116.587 29.7897 116.279 29.4825C115.972 29.1753 115.819 28.7387 115.819 28.1728V14.6145C115.819 14.0485 115.972 13.612 116.279 13.3047C116.587 12.9975 117.023 12.8439 117.589 12.8439H126.175C127.372 12.8439 127.97 13.329 127.97 14.2992C127.97 15.2855 127.372 15.7787 126.175 15.7787H119.505V19.7807H125.69C126.887 19.7807 127.485 20.2739 127.485 21.2602C127.485 22.2304 126.887 22.7155 125.69 22.7155H119.505V27.0086H126.175C127.372 27.0086 127.97 27.5017 127.97 28.4881C127.97 29.4583 127.372 29.9434 126.175 29.9434H117.589ZM144.921 27.2268C145.229 27.5826 145.382 27.9545 145.382 28.3426C145.382 28.8115 145.196 29.2238 144.824 29.5795C144.469 29.9191 144.056 30.0889 143.587 30.0889C143.102 30.0889 142.69 29.8868 142.35 29.4825L137.791 23.904L133.182 29.4825C132.826 29.8868 132.414 30.0889 131.945 30.0889C131.492 30.0889 131.08 29.9191 130.708 29.5795C130.353 29.2238 130.175 28.8115 130.175 28.3426C130.175 27.9383 130.32 27.5664 130.611 27.2268L135.583 21.3087L130.781 15.5604C130.474 15.2047 130.32 14.8328 130.32 14.4447C130.32 13.9758 130.498 13.5715 130.854 13.232C131.226 12.8762 131.638 12.6984 132.091 12.6984C132.576 12.6984 132.996 12.9086 133.352 13.329L137.791 18.6892L142.181 13.329C142.536 12.9086 142.957 12.6984 143.442 12.6984C143.895 12.6984 144.299 12.8762 144.655 13.232C145.027 13.5715 145.212 13.9758 145.212 14.4447C145.212 14.8489 145.067 15.2208 144.776 15.5604L139.973 21.3087L144.921 27.2268Z" fill="white"/>
<mask id="path-2-outside-1" maskUnits="userSpaceOnUse" x="0" y="0" width="35" height="43" fill="black">
<rect fill="white" width="35" height="43"/>
<path fill-rule="evenodd" clip-rule="evenodd" d="M2.21534 22.8341C1.89327 22.8341 1.58442 22.7063 1.35652 22.4787C1.12863 22.2511 1.00039 21.9423 1 21.6203C1.00166 17.67 2.40525 13.8484 4.96084 10.836C7.51643 7.82364 11.0581 5.81596 14.9553 5.17046L12.9053 3.12039C12.7817 3.01026 12.6818 2.87604 12.612 2.72598C12.5421 2.57591 12.5038 2.41311 12.4992 2.24757C12.4946 2.08213 12.5238 1.91748 12.5852 1.76369C12.6466 1.6099 12.7388 1.4704 12.8562 1.35362C12.9735 1.23678 13.1134 1.14522 13.2675 1.08453C13.4215 1.02383 13.5864 0.99528 13.7518 1.00064C13.9172 1.00599 14.0798 1.04514 14.2296 1.11566C14.3794 1.18619 14.5132 1.28661 14.6228 1.41079L18.5269 5.31495C18.6944 5.48499 18.8081 5.70074 18.8536 5.935C18.8992 6.16935 18.8746 6.41183 18.7831 6.63229C18.6915 6.85274 18.537 7.04128 18.3389 7.17432C18.1406 7.30745 17.9076 7.37911 17.669 7.38048C13.8937 7.38459 10.2741 8.88617 7.60453 11.5558C4.9349 14.2253 3.43332 17.8449 3.42921 21.6203C3.42921 21.9422 3.30136 22.251 3.07366 22.4786C2.84606 22.7063 2.53731 22.8341 2.21534 22.8341ZM14.4368 19.8404V27.0131C14.4379 27.1957 14.402 27.3765 14.331 27.5447C14.2636 27.7058 14.1631 27.8509 14.0358 27.9705C13.9085 28.0909 13.7606 28.1873 13.599 28.255C13.258 28.3953 12.8754 28.3953 12.5344 28.255C12.3731 28.1869 12.2252 28.0906 12.0976 27.9705C11.9709 27.8504 11.8705 27.7054 11.8024 27.5447C11.732 27.3764 11.6966 27.1956 11.6982 27.0131V16.2704C11.6968 16.1026 11.7269 15.936 11.7868 15.7792C11.8454 15.631 11.9296 15.4943 12.0355 15.3751C12.1483 15.2264 12.292 15.104 12.4567 15.0161C12.6455 14.9197 12.8556 14.8728 13.0674 14.8793C13.2698 14.8788 13.4695 14.9241 13.6519 15.0115C13.8433 15.1036 14.0137 15.2343 14.1523 15.3953L20.9023 23.2939V16.2268C20.9009 16.0437 20.9391 15.8624 21.0142 15.6953C21.0844 15.5345 21.1865 15.3896 21.3142 15.2694C21.4426 15.1483 21.5922 15.0519 21.7556 14.985C21.9261 14.9147 22.1089 14.8787 22.2933 14.8793C22.6519 14.8777 22.9967 15.0179 23.2523 15.2694C23.3728 15.3925 23.4692 15.5369 23.5367 15.6953C23.6071 15.8636 23.6425 16.0444 23.6408 16.2268V27.0131C23.6427 27.2154 23.5981 27.4154 23.5103 27.5975C23.4227 27.7743 23.2988 27.9306 23.1466 28.0561C23.0459 28.1548 22.9257 28.2316 22.7938 28.2814C22.6446 28.3361 22.4865 28.3631 22.3275 28.3606H22.1597C21.9892 28.3495 21.8241 28.2961 21.6795 28.2053C21.53 28.1044 21.4 27.9776 21.2955 27.8307L14.4368 19.8404ZM21.1089 42.1007C21.2562 42.1618 21.4141 42.1931 21.5735 42.193C21.8136 42.1927 22.0482 42.1213 22.2478 41.9878C22.4473 41.8543 22.6029 41.6647 22.6948 41.443C22.7868 41.2212 22.811 40.9771 22.7644 40.7416C22.7178 40.5061 22.6025 40.2896 22.433 40.1196L20.383 38.0696C24.2802 37.424 27.8219 35.4163 30.3774 32.404C32.933 29.3916 34.3366 25.5701 34.3384 21.6197C34.3271 21.3051 34.1942 21.0071 33.9676 20.7885C33.7411 20.5699 33.4385 20.4477 33.1237 20.4477C32.8089 20.4477 32.5064 20.5699 32.2798 20.7885C32.0533 21.0071 31.9203 21.3051 31.9091 21.6197C31.9049 25.395 30.4034 29.0146 27.7338 31.6842C25.0642 34.3538 21.4447 35.8554 17.6693 35.8595C17.4291 35.8593 17.1941 35.9305 16.9943 36.064C16.7945 36.1974 16.6388 36.3872 16.5469 36.6092C16.455 36.8313 16.4311 37.0755 16.4782 37.3111C16.5253 37.5468 16.6412 37.7631 16.8114 37.9328L20.7156 41.837C20.828 41.95 20.9617 42.0396 21.1089 42.1007Z"/>
</mask>
<path fill-rule="evenodd" clip-rule="evenodd" d="M2.21534 22.8341C1.89327 22.8341 1.58442 22.7063 1.35652 22.4787C1.12863 22.2511 1.00039 21.9423 1 21.6203C1.00166 17.67 2.40525 13.8484 4.96084 10.836C7.51643 7.82364 11.0581 5.81596 14.9553 5.17046L12.9053 3.12039C12.7817 3.01026 12.6818 2.87604 12.612 2.72598C12.5421 2.57591 12.5038 2.41311 12.4992 2.24757C12.4946 2.08213 12.5238 1.91748 12.5852 1.76369C12.6466 1.6099 12.7388 1.4704 12.8562 1.35362C12.9735 1.23678 13.1134 1.14522 13.2675 1.08453C13.4215 1.02383 13.5864 0.99528 13.7518 1.00064C13.9172 1.00599 14.0798 1.04514 14.2296 1.11566C14.3794 1.18619 14.5132 1.28661 14.6228 1.41079L18.5269 5.31495C18.6944 5.48499 18.8081 5.70074 18.8536 5.935C18.8992 6.16935 18.8746 6.41183 18.7831 6.63229C18.6915 6.85274 18.537 7.04128 18.3389 7.17432C18.1406 7.30745 17.9076 7.37911 17.669 7.38048C13.8937 7.38459 10.2741 8.88617 7.60453 11.5558C4.9349 14.2253 3.43332 17.8449 3.42921 21.6203C3.42921 21.9422 3.30136 22.251 3.07366 22.4786C2.84606 22.7063 2.53731 22.8341 2.21534 22.8341ZM14.4368 19.8404V27.0131C14.4379 27.1957 14.402 27.3765 14.331 27.5447C14.2636 27.7058 14.1631 27.8509 14.0358 27.9705C13.9085 28.0909 13.7606 28.1873 13.599 28.255C13.258 28.3953 12.8754 28.3953 12.5344 28.255C12.3731 28.1869 12.2252 28.0906 12.0976 27.9705C11.9709 27.8504 11.8705 27.7054 11.8024 27.5447C11.732 27.3764 11.6966 27.1956 11.6982 27.0131V16.2704C11.6968 16.1026 11.7269 15.936 11.7868 15.7792C11.8454 15.631 11.9296 15.4943 12.0355 15.3751C12.1483 15.2264 12.292 15.104 12.4567 15.0161C12.6455 14.9197 12.8556 14.8728 13.0674 14.8793C13.2698 14.8788 13.4695 14.9241 13.6519 15.0115C13.8433 15.1036 14.0137 15.2343 14.1523 15.3953L20.9023 23.2939V16.2268C20.9009 16.0437 20.9391 15.8624 21.0142 15.6953C21.0844 15.5345 21.1865 15.3896 21.3142 15.2694C21.4426 15.1483 21.5922 15.0519 21.7556 14.985C21.9261 14.9147 22.1089 14.8787 22.2933 14.8793C22.6519 14.8777 22.9967 15.0179 23.2523 15.2694C23.3728 15.3925 23.4692 15.5369 23.5367 15.6953C23.6071 15.8636 23.6425 16.0444 23.6408 16.2268V27.0131C23.6427 27.2154 23.5981 27.4154 23.5103 27.5975C23.4227 27.7743 23.2988 27.9306 23.1466 28.0561C23.0459 28.1548 22.9257 28.2316 22.7938 28.2814C22.6446 28.3361 22.4865 28.3631 22.3275 28.3606H22.1597C21.9892 28.3495 21.8241 28.2961 21.6795 28.2053C21.53 28.1044 21.4 27.9776 21.2955 27.8307L14.4368 19.8404ZM21.1089 42.1007C21.2562 42.1618 21.4141 42.1931 21.5735 42.193C21.8136 42.1927 22.0482 42.1213 22.2478 41.9878C22.4473 41.8543 22.6029 41.6647 22.6948 41.443C22.7868 41.2212 22.811 40.9771 22.7644 40.7416C22.7178 40.5061 22.6025 40.2896 22.433 40.1196L20.383 38.0696C24.2802 37.424 27.8219 35.4163 30.3774 32.404C32.933 29.3916 34.3366 25.5701 34.3384 21.6197C34.3271 21.3051 34.1942 21.0071 33.9676 20.7885C33.7411 20.5699 33.4385 20.4477 33.1237 20.4477C32.8089 20.4477 32.5064 20.5699 32.2798 20.7885C32.0533 21.0071 31.9203 21.3051 31.9091 21.6197C31.9049 25.395 30.4034 29.0146 27.7338 31.6842C25.0642 34.3538 21.4447 35.8554 17.6693 35.8595C17.4291 35.8593 17.1941 35.9305 16.9943 36.064C16.7945 36.1974 16.6388 36.3872 16.5469 36.6092C16.455 36.8313 16.4311 37.0755 16.4782 37.3111C16.5253 37.5468 16.6412 37.7631 16.8114 37.9328L20.7156 41.837C20.828 41.95 20.9617 42.0396 21.1089 42.1007Z" fill="white"/>
<path d="M1.35652 22.4787L1.70985 22.1249L1.70985 22.1249L1.35652 22.4787ZM1 21.6203L0.499999 21.62L0.5 21.6209L1 21.6203ZM4.96084 10.836L5.34211 11.1595V11.1595L4.96084 10.836ZM14.9553 5.17046L15.037 5.66374L15.9967 5.50478L15.3089 4.81691L14.9553 5.17046ZM12.9053 3.12039L13.2589 2.76684L13.2487 2.75663L13.2379 2.74702L12.9053 3.12039ZM12.612 2.72598L13.0654 2.51512L13.0653 2.51487L12.612 2.72598ZM12.4992 2.24757L12.999 2.23368L12.999 2.23367L12.4992 2.24757ZM12.5852 1.76369L12.1208 1.57835V1.57835L12.5852 1.76369ZM12.8562 1.35362L13.2088 1.70806L13.2091 1.70783L12.8562 1.35362ZM13.2675 1.08453L13.4508 1.54974L13.4509 1.54969L13.2675 1.08453ZM14.2296 1.11566L14.4426 0.663307L14.4426 0.663296L14.2296 1.11566ZM14.6228 1.41079L14.2478 1.74155L14.2581 1.75328L14.2692 1.76434L14.6228 1.41079ZM18.5269 5.31495L18.8831 4.96406L18.8805 4.96139L18.5269 5.31495ZM18.8536 5.935L18.3628 6.03037L18.3628 6.03053L18.8536 5.935ZM18.7831 6.63229L19.2448 6.82419L19.2449 6.82401L18.7831 6.63229ZM18.3389 7.17432L18.0601 6.75921L18.0601 6.75924L18.3389 7.17432ZM17.669 7.38048L17.6695 7.88049L17.6719 7.88048L17.669 7.38048ZM7.60453 11.5558L7.95808 11.9094L7.95809 11.9094L7.60453 11.5558ZM3.42921 21.6203L2.92921 21.6197V21.6203H3.42921ZM3.07366 22.4786L2.72018 22.125L2.72003 22.1251L3.07366 22.4786ZM14.4368 27.0131H13.9368L13.9368 27.0163L14.4368 27.0131ZM14.4368 19.8404L14.8162 19.5148L13.9368 18.4903V19.8404H14.4368ZM14.331 27.5447L13.8704 27.3503L13.8698 27.3516L14.331 27.5447ZM14.0358 27.9705L13.6933 27.6062L13.6922 27.6073L14.0358 27.9705ZM13.599 28.255L13.7892 28.7174L13.7923 28.7161L13.599 28.255ZM12.5344 28.255L12.3399 28.7156L12.3442 28.7174L12.5344 28.255ZM12.0976 27.9705L11.7536 28.3333L11.7548 28.3345L12.0976 27.9705ZM11.8024 27.5447L11.3411 27.7376L11.342 27.7398L11.8024 27.5447ZM11.6982 27.0131L12.1982 27.0177V27.0131H11.6982ZM11.6982 16.2704H12.1982L12.1982 16.2663L11.6982 16.2704ZM11.7868 15.7792L11.3218 15.5953L11.3198 15.6007L11.7868 15.7792ZM12.0355 15.3751L12.4093 15.7072L12.4221 15.6928L12.4337 15.6774L12.0355 15.3751ZM12.4567 15.0161L12.2294 14.5706L12.2212 14.575L12.4567 15.0161ZM13.0674 14.8793L13.052 15.3791L13.0603 15.3793L13.0687 15.3793L13.0674 14.8793ZM13.6519 15.0115L13.8686 14.5609L13.868 14.5606L13.6519 15.0115ZM14.1523 15.3953L14.5324 15.0705L14.5312 15.0691L14.1523 15.3953ZM20.9023 23.2939L20.5222 23.6187L21.4023 24.6486V23.2939H20.9023ZM20.9023 16.2268H21.4023L21.4023 16.2231L20.9023 16.2268ZM21.0142 15.6953L21.4702 15.9004L21.4724 15.8953L21.0142 15.6953ZM21.3142 15.2694L21.6569 15.6336L21.6574 15.6331L21.3142 15.2694ZM21.7556 14.985L21.945 15.4478L21.9464 15.4472L21.7556 14.985ZM22.2933 14.8793L22.2918 15.3793L22.2955 15.3793L22.2933 14.8793ZM23.2523 15.2694L23.6096 14.9195L23.603 14.913L23.2523 15.2694ZM23.5367 15.6953L23.998 15.5024L23.9967 15.4996L23.5367 15.6953ZM23.6408 16.2268L23.1408 16.2222V16.2268H23.6408ZM23.6408 27.0131H23.1408L23.1409 27.0177L23.6408 27.0131ZM23.5103 27.5975L23.9584 27.8196L23.9608 27.8144L23.5103 27.5975ZM23.1466 28.0561L22.8285 27.6703L22.8118 27.6841L22.7963 27.6992L23.1466 28.0561ZM22.7938 28.2814L22.966 28.7509L22.9704 28.7492L22.7938 28.2814ZM22.3275 28.3606L22.3352 27.8606H22.3275V28.3606ZM22.1597 28.3606L22.1271 28.8595L22.1434 28.8606H22.1597V28.3606ZM21.6795 28.2053L21.3999 28.6198L21.4066 28.6244L21.4136 28.6287L21.6795 28.2053ZM21.2955 27.8307L21.703 27.5409L21.6898 27.5223L21.6749 27.5051L21.2955 27.8307ZM21.5735 42.193L21.5742 42.693H21.5742L21.5735 42.193ZM21.1089 42.1007L21.3006 41.6389L21.3005 41.6389L21.1089 42.1007ZM22.2478 41.9878L21.9699 41.5721L21.9698 41.5722L22.2478 41.9878ZM22.6948 41.443L22.233 41.2514L22.2329 41.2515L22.6948 41.443ZM22.7644 40.7416L23.2549 40.6446L23.2549 40.6446L22.7644 40.7416ZM22.433 40.1196L22.7872 39.7666L22.7866 39.766L22.433 40.1196ZM20.383 38.0696L20.3013 37.5763L19.3415 37.7353L20.0294 38.4232L20.383 38.0696ZM30.3774 32.404L29.9962 32.0805L29.9961 32.0805L30.3774 32.404ZM34.3384 21.6197L34.8384 21.6199L34.8384 21.6109L34.838 21.6018L34.3384 21.6197ZM33.9676 20.7885L34.3148 20.4287L34.3148 20.4287L33.9676 20.7885ZM32.2798 20.7885L31.9327 20.4286L31.9326 20.4287L32.2798 20.7885ZM31.9091 21.6197L31.4094 21.6018L31.4091 21.6105L31.4091 21.6192L31.9091 21.6197ZM27.7338 31.6842L28.0874 32.0377L27.7338 31.6842ZM17.6693 35.8595L17.6689 36.3595H17.6698L17.6693 35.8595ZM16.9943 36.064L17.272 36.4798L17.2721 36.4797L16.9943 36.064ZM16.5469 36.6092L17.0089 36.8005L17.009 36.8003L16.5469 36.6092ZM16.4782 37.3111L16.9685 37.2132L16.4782 37.3111ZM16.8114 37.9328L17.1649 37.5793L17.1645 37.5789L16.8114 37.9328ZM20.7156 41.837L21.0701 41.4844L21.0692 41.4835L20.7156 41.837ZM1.0032 22.8325C1.32481 23.1537 1.76073 23.3341 2.21534 23.3341V22.3341C2.02581 22.3341 1.84402 22.2589 1.70985 22.1249L1.0032 22.8325ZM0.5 21.6209C0.500553 22.0755 0.681557 22.5112 1.0032 22.8325L1.70985 22.1249C1.5757 21.9909 1.50023 21.8092 1.5 21.6196L0.5 21.6209ZM4.57956 10.5125C1.94737 13.6152 0.501714 17.5514 0.5 21.62L1.5 21.6205C1.50161 17.7886 2.86313 14.0815 5.34211 11.1595L4.57956 10.5125ZM14.8736 4.67718C10.8596 5.34203 7.21175 7.40989 4.57956 10.5125L5.34211 11.1595C7.82111 8.23739 11.2566 6.28989 15.037 5.66374L14.8736 4.67718ZM12.5518 3.47393L14.6017 5.524L15.3089 4.81691L13.2589 2.76684L12.5518 3.47393ZM12.1587 2.93684C12.2573 3.14888 12.3983 3.33836 12.5728 3.49375L13.2379 2.74702C13.1651 2.68215 13.1064 2.60321 13.0654 2.51512L12.1587 2.93684ZM11.9994 2.26147C12.0059 2.4951 12.06 2.72502 12.1588 2.93708L13.0653 2.51487C13.0243 2.42679 13.0017 2.33112 12.999 2.23368L11.9994 2.26147ZM12.1208 1.57835C12.0342 1.79544 11.9929 2.0279 11.9994 2.26147L12.999 2.23367C12.9963 2.13637 13.0135 2.03952 13.0496 1.94903L12.1208 1.57835ZM12.5035 0.999177C12.3378 1.16405 12.2076 1.36107 12.1208 1.57835L13.0496 1.94903C13.0856 1.85873 13.1398 1.77676 13.2088 1.70806L12.5035 0.999177ZM13.0843 0.619319C12.8667 0.705013 12.669 0.834322 12.5033 0.999399L13.2091 1.70783C13.2779 1.63924 13.3602 1.58543 13.4508 1.54974L13.0843 0.619319ZM13.768 0.500897C13.5344 0.493337 13.3016 0.533633 13.0842 0.619369L13.4509 1.54969C13.5414 1.51402 13.6383 1.49722 13.7356 1.50037L13.768 0.500897ZM14.4426 0.663296C14.2312 0.563737 14.0016 0.508458 13.768 0.500897L13.7356 1.50037C13.8329 1.50352 13.9285 1.52654 14.0166 1.56802L14.4426 0.663296ZM14.9977 1.08002C14.843 0.904629 14.654 0.762862 14.4426 0.663307L14.0166 1.56801C14.1047 1.60952 14.1834 1.66859 14.2478 1.74155L14.9977 1.08002ZM18.8805 4.96139L14.9763 1.05723L14.2692 1.76434L18.1734 5.6685L18.8805 4.96139ZM19.3444 5.83962C19.2801 5.50883 19.1197 5.20419 18.8831 4.96407L18.1707 5.66582C18.2692 5.76578 18.336 5.89265 18.3628 6.03037L19.3444 5.83962ZM19.2449 6.82401C19.3741 6.51284 19.4088 6.17045 19.3444 5.83946L18.3628 6.03053C18.3896 6.16826 18.3752 6.31082 18.3213 6.44056L19.2449 6.82401ZM18.6176 7.58943C18.8974 7.40153 19.1155 7.1353 19.2448 6.82419L18.3214 6.44039C18.2674 6.57018 18.1766 6.68104 18.0601 6.75921L18.6176 7.58943ZM17.6719 7.88048C18.0088 7.87854 18.3377 7.77737 18.6176 7.5894L18.0601 6.75924C17.9435 6.83754 17.8065 6.87969 17.6661 6.88049L17.6719 7.88048ZM7.95809 11.9094C10.534 9.33336 14.0266 7.88445 17.6695 7.88048L17.6684 6.88048C13.7607 6.88474 10.0141 8.43898 7.25097 11.2023L7.95809 11.9094ZM3.92921 21.6208C3.93317 17.9779 5.38209 14.4853 7.95808 11.9094L7.25098 11.2022C4.48771 13.9654 2.93346 17.712 2.92921 21.6197L3.92921 21.6208ZM3.42714 22.8322C3.74872 22.5108 3.92921 22.0748 3.92921 21.6203H2.92921C2.92921 21.8097 2.854 21.9912 2.72018 22.125L3.42714 22.8322ZM2.21534 23.3341C2.66986 23.3341 3.10585 23.1536 3.42729 22.8321L2.72003 22.1251C2.58627 22.2589 2.40475 22.3341 2.21534 22.3341V23.3341ZM14.9368 27.0131V19.8404H13.9368V27.0131H14.9368ZM14.7917 27.7391C14.8891 27.5083 14.9384 27.2602 14.9368 27.0099L13.9368 27.0163C13.9375 27.1312 13.9149 27.2447 13.8704 27.3503L14.7917 27.7391ZM14.3783 28.3348C14.5568 28.167 14.6977 27.9635 14.7923 27.7377L13.8698 27.3516C13.8294 27.4481 13.7693 27.5348 13.6933 27.6062L14.3783 28.3348ZM13.7923 28.7161C14.0095 28.6251 14.2083 28.4956 14.3794 28.3337L13.6922 27.6073C13.6087 27.6863 13.5118 27.7494 13.4057 27.7939L13.7923 28.7161ZM12.3442 28.7174C12.807 28.9078 13.3264 28.9078 13.7892 28.7174L13.4088 27.7926C13.1897 27.8827 12.9437 27.8827 12.7247 27.7926L12.3442 28.7174ZM11.7548 28.3345C11.9258 28.4956 12.124 28.6244 12.3399 28.7156L12.7289 27.7944C12.6222 27.7493 12.5245 27.6857 12.4404 27.6065L11.7548 28.3345ZM11.342 27.7398C11.4369 27.9637 11.5769 28.1658 11.7536 28.3333L12.4417 27.6077C12.365 27.535 12.3041 27.4472 12.2627 27.3495L11.342 27.7398ZM11.1982 27.0086C11.196 27.2588 11.2446 27.5068 11.3411 27.7376L12.2636 27.3517C12.2194 27.246 12.1971 27.1324 12.1982 27.0177L11.1982 27.0086ZM11.1982 16.2704V27.0131H12.1982V16.2704H11.1982ZM11.3198 15.6007C11.2376 15.8157 11.1964 16.0443 11.1982 16.2745L12.1982 16.2663C12.1973 16.1609 12.2162 16.0562 12.2538 15.9578L11.3198 15.6007ZM11.6616 15.0431C11.5171 15.2058 11.402 15.3927 11.3219 15.5953L12.2517 15.9632C12.2889 15.8694 12.3422 15.7827 12.4093 15.7072L11.6616 15.0431ZM12.2212 14.575C11.993 14.6968 11.7937 14.8666 11.6372 15.0728L12.4337 15.6774C12.5029 15.5863 12.5911 15.5111 12.6922 15.4571L12.2212 14.575ZM13.0829 14.3796C12.787 14.3704 12.4934 14.436 12.2295 14.5707L12.6839 15.4615C12.7976 15.4035 12.9242 15.3751 13.052 15.3791L13.0829 14.3796ZM13.868 14.5606C13.6179 14.4407 13.3439 14.3786 13.0662 14.3793L13.0687 15.3793C13.1956 15.379 13.3211 15.4074 13.4357 15.4623L13.868 14.5606ZM14.5312 15.0691C14.3477 14.856 14.1222 14.6829 13.8686 14.5609L13.4351 15.462C13.5645 15.5243 13.6796 15.6126 13.7733 15.7215L14.5312 15.0691ZM21.2824 22.969L14.5324 15.0705L13.7722 15.7201L20.5222 23.6187L21.2824 22.969ZM20.4023 16.2268V23.2939H21.4023V16.2268H20.4023ZM20.5581 15.4903C20.4536 15.7229 20.4004 15.9755 20.4023 16.2305L21.4023 16.2231C21.4014 16.1119 21.4246 16.0018 21.4702 15.9004L20.5581 15.4903ZM20.9716 14.9053C20.7946 15.0718 20.6532 15.2725 20.5559 15.4954L21.4724 15.8953C21.5156 15.7965 21.5783 15.7075 21.6569 15.6336L20.9716 14.9053ZM21.5662 14.5223C21.346 14.6124 21.1442 14.7424 20.9711 14.9058L21.6574 15.6331C21.7409 15.5542 21.8385 15.4914 21.945 15.4478L21.5662 14.5223ZM22.2949 14.3793C22.0445 14.3785 21.7964 14.4273 21.5649 14.5229L21.9464 15.4472C22.0559 15.402 22.1733 15.3789 22.2918 15.3793L22.2949 14.3793ZM23.603 14.913C23.2532 14.5689 22.7816 14.3772 22.2912 14.3793L22.2955 15.3793C22.5223 15.3783 22.7402 15.467 22.9016 15.6258L23.603 14.913ZM23.9967 15.4996C23.9049 15.2837 23.7736 15.0871 23.6095 14.9196L22.8951 15.6193C22.972 15.6978 23.0336 15.79 23.0766 15.8911L23.9967 15.4996ZM24.1408 16.2314C24.1431 15.9812 24.0945 15.7332 23.998 15.5024L23.0754 15.8883C23.1196 15.994 23.1419 16.1077 23.1409 16.2222L24.1408 16.2314ZM24.1408 27.0131V16.2268H23.1408V27.0131H24.1408ZM23.9608 27.8144C24.0818 27.5631 24.1434 27.2874 24.1408 27.0085L23.1409 27.0177C23.142 27.1434 23.1143 27.2676 23.0598 27.3806L23.9608 27.8144ZM23.4646 28.4419C23.6713 28.2715 23.8395 28.0595 23.9583 27.8196L23.0623 27.3755C23.006 27.4892 22.9263 27.5896 22.8285 27.6703L23.4646 28.4419ZM22.9704 28.7492C23.1672 28.6749 23.3465 28.5604 23.4968 28.4129L22.7963 27.6992C22.7453 27.7493 22.6843 27.7883 22.6171 27.8137L22.9704 28.7492ZM22.3198 28.8606C22.5403 28.864 22.7593 28.8266 22.966 28.7508L22.6216 27.812C22.5298 27.8457 22.4327 27.8622 22.3352 27.8607L22.3198 28.8606ZM22.1597 28.8606H22.3275V27.8606H22.1597V28.8606ZM21.4136 28.6287C21.6287 28.7638 21.8739 28.843 22.1271 28.8595L22.1924 27.8617C22.1045 27.8559 22.0196 27.8285 21.9453 27.7818L21.4136 28.6287ZM20.8881 28.1205C21.0273 28.3162 21.2006 28.4854 21.3999 28.6198L21.9591 27.7907C21.8594 27.7235 21.7727 27.6389 21.703 27.5409L20.8881 28.1205ZM14.0574 20.1661L20.9161 28.1564L21.6749 27.5051L14.8162 19.5148L14.0574 20.1661ZM21.5729 41.693C21.4793 41.6931 21.3868 41.6747 21.3006 41.6389L20.9173 42.5626C21.1256 42.649 21.3488 42.6932 21.5742 42.693L21.5729 41.693ZM21.9698 41.5722C21.8523 41.6508 21.7142 41.6928 21.5729 41.693L21.5742 42.693C21.9129 42.6925 22.2441 42.5918 22.5258 42.4034L21.9698 41.5722ZM22.2329 41.2515C22.1788 41.382 22.0872 41.4937 21.9699 41.5721L22.5258 42.4034C22.8074 42.215 23.027 41.9474 23.1567 41.6345L22.2329 41.2515ZM22.2739 40.8386C22.3013 40.9773 22.2871 41.1209 22.233 41.2514L23.1566 41.6346C23.2865 41.3214 23.3207 40.977 23.2549 40.6446L22.2739 40.8386ZM22.0789 40.4725C22.1786 40.5726 22.2465 40.7 22.2739 40.8386L23.2549 40.6446C23.1891 40.3121 23.0264 40.0066 22.7872 39.7666L22.0789 40.4725ZM20.0294 38.4232L22.0795 40.4731L22.7866 39.766L20.7365 37.716L20.0294 38.4232ZM29.9961 32.0805C27.5173 35.0026 24.0817 36.9501 20.3013 37.5763L20.4647 38.5629C24.4787 37.8979 28.1266 35.8301 30.7587 32.7274L29.9961 32.0805ZM33.8384 21.6195C33.8367 25.4514 32.4751 29.1584 29.9962 32.0805L30.7587 32.7274C33.3909 29.6248 34.8366 25.6887 34.8384 21.6199L33.8384 21.6195ZM33.6204 21.1483C33.7538 21.277 33.8321 21.4524 33.8387 21.6376L34.838 21.6018C34.8222 21.1577 34.6345 20.7372 34.3148 20.4287L33.6204 21.1483ZM33.1237 20.9477C33.309 20.9477 33.4871 21.0197 33.6204 21.1483L34.3148 20.4287C33.9951 20.1201 33.568 19.9477 33.1237 19.9477V20.9477ZM32.6269 21.1484C32.7604 21.0196 32.9384 20.9477 33.1237 20.9477V19.9477C32.6793 19.9477 32.2524 20.1202 31.9327 20.4286L32.6269 21.1484ZM32.4087 21.6376C32.4154 21.4524 32.4936 21.277 32.627 21.1483L31.9326 20.4287C31.6129 20.7372 31.4253 21.1577 31.4094 21.6018L32.4087 21.6376ZM28.0874 32.0377C30.8506 29.2745 32.4048 25.528 32.4091 21.6203L31.4091 21.6192C31.4051 25.2621 29.9562 28.7547 27.3803 31.3306L28.0874 32.0377ZM17.6698 36.3595C21.5777 36.3552 25.3241 34.801 28.0874 32.0377L27.3803 31.3306C24.8043 33.9066 21.3117 35.3555 17.6687 35.3595L17.6698 36.3595ZM17.2721 36.4797C17.3896 36.4012 17.5277 36.3594 17.6689 36.3595L17.6697 35.3595C17.3304 35.3592 16.9986 35.4597 16.7165 35.6483L17.2721 36.4797ZM17.009 36.8003C17.063 36.6698 17.1545 36.5582 17.272 36.4798L16.7166 35.6482C16.4345 35.8366 16.2146 36.1046 16.0849 36.4181L17.009 36.8003ZM16.9685 37.2132C16.9408 37.0746 16.9549 36.931 17.0089 36.8005L16.085 36.418C15.9552 36.7315 15.9214 37.0764 15.9879 37.4091L16.9685 37.2132ZM17.1645 37.5789C17.0644 37.479 16.9962 37.3518 16.9685 37.2132L15.9879 37.4091C16.0544 37.7418 16.218 38.0472 16.4582 38.2868L17.1645 37.5789ZM21.0692 41.4835L17.1649 37.5793L16.4578 38.2864L20.3621 42.1906L21.0692 41.4835ZM21.3005 41.6389C21.2143 41.6031 21.1359 41.5506 21.0701 41.4844L20.3611 42.1896C20.5201 42.3494 20.7091 42.4762 20.9173 42.5626L21.3005 41.6389Z" fill="white" mask="url(#path-2-outside-1)"/>
</svg>
