<svg width="65" height="40" viewBox="0 0 65 40" fill="none" xmlns="http://www.w3.org/2000/svg">
<path d="M32.1913 35.619C36.3992 35.619 39.8104 28.6261 39.8104 19.9999C39.8104 11.3737 36.3992 4.38086 32.1913 4.38086C27.9834 4.38086 24.5723 11.3737 24.5723 19.9999C24.5723 28.6261 27.9834 35.619 32.1913 35.619Z" fill="#EA610A"/>
<path d="M24.5714 20C24.5714 13.7143 27.619 8 32.1905 4.38095C28.7619 1.71429 24.5714 0 19.8095 0C8.7619 0 0 8.95238 0 19.8095C0 30.6667 8.95238 39.8095 19.8095 39.8095C24.381 39.8095 28.7619 38.2857 32.1905 35.4286C27.619 31.8095 24.5714 26.2857 24.5714 20Z" fill="#E20D17"/>
<path d="M44.5724 0C39.8105 0 35.62 1.71429 32.1914 4.38095C36.7628 8 39.8105 13.7143 39.8105 20C39.8105 26.2857 36.7628 32 32.1914 35.619C35.62 38.2857 39.8105 40 44.5724 40C55.62 40 64.3819 31.0476 64.3819 20.1905C64.3819 9.33333 55.4295 0 44.5724 0Z" fill="#F59E00"/>
</svg>
