<svg width="80" height="25" viewBox="0 0 80 25" fill="none" xmlns="http://www.w3.org/2000/svg">
<g clip-path="url(#clip0)">
<path d="M28.1738 24.2662L32.2869 0.410156H38.8679L34.7548 24.2662H28.1738Z" fill="#1D355A"/>
<path d="M58.2008 1.02828C56.9668 0.616967 54.9103 0 52.4424 0C46.0671 0 41.5427 3.29049 41.5427 7.81491C41.5427 11.3111 44.8332 13.162 47.301 14.1902C49.7689 15.4242 50.5915 16.0411 50.5915 17.0694C50.5915 18.7147 48.535 19.3316 46.6841 19.3316C44.0105 19.3316 42.7766 18.9203 40.5144 18.0977L39.6918 17.6864L38.8691 23.2391C40.3087 23.8561 43.1879 24.473 46.0671 24.473C52.8537 24.473 57.3782 21.1825 57.3782 16.2468C57.3782 13.5733 55.7329 11.5167 51.8255 9.87147C49.5632 8.84319 48.1236 8.02057 48.1236 6.99229C48.1236 5.96401 49.3576 4.93574 51.8255 4.93574C53.882 4.93574 55.5273 5.34705 56.7612 5.75836L57.3782 5.96401L58.2008 1.02828Z" fill="#1D355A"/>
<path d="M74.8594 0.410156H69.9237C68.2784 0.410156 67.2502 0.821468 66.4275 2.46671L56.7617 24.2662H63.5484C63.5484 24.2662 64.5766 21.387 64.988 20.7701C65.8106 20.7701 72.3916 20.7701 73.2142 20.7701C73.4198 21.5927 74.0368 24.2662 74.0368 24.2662H80.0008L74.8594 0.410156ZM67.0445 15.8343C67.6615 14.3947 69.718 9.25336 69.718 9.25336C69.718 9.25336 70.335 7.81376 70.5407 6.99114L70.952 9.0477C70.952 9.0477 72.1859 14.8061 72.3916 15.8343H67.0445Z" fill="#1D355A"/>
<path d="M22.8283 0.412687L16.4529 16.6595L15.836 13.369C14.602 9.46154 10.9002 5.34842 6.78711 3.29187L12.5455 24.0631H19.3321L29.6149 0.207031H22.8283" fill="#1D355A"/>
<path d="M10.4884 0.410156H0V0.821468C8.22623 2.87802 13.5733 7.60811 15.8355 13.3665L13.5733 2.46671C13.162 0.821467 11.928 0.410156 10.4884 0.410156Z" fill="#1D355A"/>
</g>
<defs>
<clipPath id="clip0">
<rect width="80" height="25" fill="white"/>
</clipPath>
</defs>
</svg>
