<svg width="71" height="41" viewBox="0 0 71 41" fill="none" xmlns="http://www.w3.org/2000/svg">
<path fill-rule="evenodd" clip-rule="evenodd" d="M16.2559 24.8495C25.2243 20.9258 37.7427 17.5627 54.3716 20.9258L54.5585 16.6285C36.9953 14.76 24.4769 20.3653 16.2559 24.289V24.8495Z" fill="#FAA929"/>
<path fill-rule="evenodd" clip-rule="evenodd" d="M0 28.0264H8.40789V30.4553H3.17631V32.8843H8.40789V35.3132H3.17631V37.7422H8.40789V40.1711H0V28.0264Z" fill="#1D355A"/>
<path fill-rule="evenodd" clip-rule="evenodd" d="M10.6504 26.9053H13.6399V40.1711H10.6504V26.9053Z" fill="#1D355A"/>
<path fill-rule="evenodd" clip-rule="evenodd" d="M24.2894 39.2367C23.1683 40.1709 21.6736 40.5446 20.1789 40.5446C17.0025 40.5446 15.5078 38.3025 15.5078 36.0604C15.5078 33.4446 17.5631 31.0156 20.3657 31.0156C23.7289 31.0156 24.8499 33.4446 24.8499 36.434H18.6841C18.6841 37.1814 19.0578 38.3025 20.7394 38.3025C21.8604 38.3025 22.421 37.9288 23.1683 37.3683L24.2894 39.2367ZM21.8604 34.7525C21.8604 33.8183 21.4868 33.0709 20.3657 33.0709C19.4315 33.0709 18.6841 34.0051 18.4973 34.7525H21.8604Z" fill="#1D355A"/>
<path fill-rule="evenodd" clip-rule="evenodd" d="M34.0049 39.6104C33.2575 40.1709 31.7628 40.5446 30.8286 40.5446C28.026 40.5446 25.9707 38.863 25.9707 36.0604C25.9707 33.0709 28.026 31.0156 31.0154 31.0156C32.1365 31.0156 33.2575 31.3893 34.0049 31.763L33.0707 33.8183C32.697 33.6314 32.1365 33.4446 31.576 33.4446C30.0812 33.4446 28.9602 34.3788 28.9602 35.8735C28.9602 37.1814 29.8944 38.1156 31.2023 38.1156C31.7628 38.1156 32.3233 37.9288 32.8839 37.5551L34.0049 39.6104Z" fill="#1D355A"/>
<path fill-rule="evenodd" clip-rule="evenodd" d="M35.1263 31.3899H36.4342V28.4004H39.4237V31.3899H42.0395V33.632H39.4237C39.4237 34.9399 39.4237 36.2478 39.4237 36.9951C39.4237 37.7425 39.6105 38.1162 40.3579 38.1162C40.7316 38.1162 41.1052 37.9293 41.4789 37.7425L42.2263 39.7978C41.1052 40.1714 39.9842 40.5451 38.8631 40.5451C36.4342 40.5451 36.2473 39.0504 36.2473 36.9951C36.2473 35.8741 36.2473 34.753 36.2473 33.632H34.9395L35.1263 31.3899Z" fill="#1D355A"/>
<path fill-rule="evenodd" clip-rule="evenodd" d="M43.5345 31.389H46.524V32.6969C46.8977 31.9495 47.645 31.2021 48.7661 31.2021C49.1398 31.2021 49.5134 31.2021 49.7003 31.389L49.3266 34.3785C48.9529 34.3785 48.7661 34.1916 48.2055 34.1916C47.2713 34.1916 46.3371 35.1258 46.3371 35.3127V40.5443H43.3477L43.5345 31.389Z" fill="#1D355A"/>
<path fill-rule="evenodd" clip-rule="evenodd" d="M55.492 31.0156C58.8552 31.0156 60.5367 33.0709 60.5367 35.8735C60.5367 38.4893 58.8552 40.7314 55.492 40.7314C52.1288 40.7314 50.4473 38.6762 50.4473 35.8735C50.4473 33.0709 52.1288 31.0156 55.492 31.0156ZM55.492 38.3025C56.9867 38.3025 57.3604 36.9946 57.3604 35.8735C57.3604 34.7525 56.9867 33.4446 55.492 33.4446C53.9973 33.4446 53.6236 34.7525 53.6236 35.8735C53.6236 36.9946 53.9973 38.3025 55.492 38.3025Z" fill="#1D355A"/>
<path fill-rule="evenodd" clip-rule="evenodd" d="M62.2182 31.3893H65.2077V32.3235C65.955 31.5762 67.0761 31.0156 68.0103 31.0156C69.8787 31.0156 70.9998 32.1367 70.9998 34.5656C70.9998 36.434 70.9998 38.3025 70.9998 40.3577H68.0103C68.0103 38.6761 68.0103 36.9946 68.0103 35.1262C68.0103 34.3788 67.8234 33.8183 66.8891 33.8183C66.3286 33.8183 65.7682 34.1919 65.2077 34.5656V40.3577H62.0312L62.2182 31.3893Z" fill="#1D355A"/>
<path fill-rule="evenodd" clip-rule="evenodd" d="M25.2227 13.0786L29.1463 0.186523H32.6963L28.7727 13.0786H25.2227Z" fill="#1D355A"/>
<path fill-rule="evenodd" clip-rule="evenodd" d="M23.7294 0.186842L20.5531 5.60526C19.8057 7.1 19.2452 7.66052 19.0584 8.59473C19.0584 7.47368 18.8715 5.97895 18.8715 5.23158L18.6847 0.186842H12.8926V0.560526C14.3873 0.560526 15.3215 1.30789 15.5084 2.80263L16.6294 12.8921H20.1794L27.4663 0H23.7294V0.186842Z" fill="#1D355A"/>
<path fill-rule="evenodd" clip-rule="evenodd" d="M50.6338 13.0783L50.4469 11.2099H46.1496L45.2154 13.0783H41.4785L48.2048 0.373047H52.8759L53.9969 13.0783H50.6338ZM50.2601 5.41778C50.2601 4.48357 50.2601 3.17568 50.2601 2.42831C50.0733 2.98884 49.139 5.0441 48.7654 5.97831L47.4575 8.78094H50.4469L50.2601 5.41778Z" fill="#1D355A"/>
<path fill-rule="evenodd" clip-rule="evenodd" d="M36.2472 13.2658C33.8183 13.2658 32.1367 12.5184 31.0156 11.7711L32.6972 9.3421C33.8183 9.90263 34.5656 10.65 36.434 10.65C36.9946 10.65 37.5551 10.4632 37.9288 9.90263C38.4893 9.15526 37.7419 8.59473 36.434 7.84737L35.6867 7.47368C33.6314 6.16579 32.884 4.85789 33.8183 2.61579C34.3788 1.12105 36.0604 0 38.6762 0C40.5446 0 42.2261 0.747368 43.1604 1.49474L41.2919 3.73684C40.3577 2.98947 39.6104 2.61579 38.6762 2.61579C37.9288 2.61579 37.3683 2.98947 37.1814 3.36316C36.8077 4.11053 37.3683 4.48421 38.3025 5.23158L39.0498 5.7921C41.4788 7.28684 42.0393 8.96842 41.4788 10.4632C40.5446 12.7053 38.4893 13.2658 36.2472 13.2658Z" fill="#1D355A"/>
</svg>
